<svg xmlns="http://www.w3.org/2000/svg" xmlns:xlink="http://www.w3.org/1999/xlink" width="1080" zoomAndPan="magnify" viewBox="0 0 810 809.999993" height="1080" preserveAspectRatio="xMidYMid meet" version="1.0"><defs><clipPath id="1d91f2578a"><path d="M 397.003906 82 L 799 82 L 799 367 L 397.003906 367 Z M 397.003906 82 " clip-rule="nonzero"/></clipPath></defs><path fill="#ff0066" d="M 489.003906 390.488281 C 436.398438 352.222656 414.921875 410.554688 361.707031 411.242188 C 334.683594 411.40625 314.992188 395.289062 294.335938 384.933594 C 245.199219 360.621094 252.210938 387.253906 73.941406 501.496094 C 54.957031 513.460938 59.757812 503.84375 80.355469 517.292969 C 135.507812 541.84375 179.726562 532.828125 222.921875 523.816406 C 249.644531 518.234375 275.976562 512.660156 304.261719 515.027344 C 282.304688 499.339844 273.136719 479.878906 275.402344 478.636719 C 277.292969 477.34375 284.679688 487.046875 299.835938 498.046875 C 314.777344 508.988281 338.785156 520.691406 366.832031 521.605469 C 395.886719 522.484375 418.339844 512.78125 434.046875 503.074219 C 450.121094 493.136719 459.125 483.203125 460.898438 484.621094 C 463.164062 486.023438 453.347656 502.089844 436.304688 514.601562 C 502.542969 516.429688 553.675781 549.535156 627.519531 523.277344 C 643.703125 517.457031 654.921875 511.257812 661.019531 508.347656 C 632.375 494.59375 502.542969 400.300781 489.003906 390.488281 " fill-opacity="1" fill-rule="nonzero"/><path fill="#ff0066" d="M 419.960938 524.464844 C 388.945312 539.773438 352.859375 540.695312 320.117188 524.515625 C 289.3125 523.25 261.117188 529.609375 233.476562 535.972656 C 190.785156 545.796875 149.40625 555.621094 101.71875 537.351562 C 151.070312 599.511719 149.886719 665.828125 286.839844 696.882812 C 341.421875 709.390625 384.476562 709.386719 439.054688 696.882812 C 578.328125 665.285156 574.496094 597.949219 625.683594 535.460938 C 551.25 566.949219 490.082031 527.535156 419.960938 524.464844 " fill-opacity="1" fill-rule="nonzero"/><path fill="#000000" d="M 73.941406 501.496094 C 252.210938 387.253906 245.199219 360.621094 294.335938 384.933594 C 314.992188 395.289062 334.683594 411.40625 361.707031 411.242188 C 414.921875 410.554688 436.394531 352.21875 489.003906 390.488281 C 502.542969 400.300781 632.375 494.59375 661.019531 508.347656 C 654.921875 511.257812 643.703125 517.457031 627.519531 523.277344 C 553.675781 549.535156 502.542969 516.429688 436.304688 514.597656 C 453.347656 502.089844 463.164062 486.023438 460.898438 484.621094 C 459.125 483.203125 450.121094 493.136719 434.046875 503.074219 C 418.339844 512.78125 395.886719 522.484375 366.832031 521.605469 C 338.785156 520.691406 314.777344 508.988281 299.835938 498.046875 C 284.679688 487.046875 277.292969 477.347656 275.402344 478.636719 C 273.136719 479.878906 282.304688 499.339844 304.261719 515.027344 C 275.976562 512.660156 249.644531 518.234375 222.921875 523.816406 C 179.726562 532.828125 135.507812 541.84375 80.355469 517.292969 C 59.757812 503.84375 54.957031 513.460938 73.941406 501.496094 M 439.054688 696.882812 C 384.476562 709.386719 341.421875 709.390625 286.839844 696.882812 C 149.886719 665.828125 151.070312 599.511719 101.71875 537.351562 C 149.332031 555.59375 190.792969 545.777344 233.515625 535.964844 C 261.183594 529.609375 289.378906 523.25 320.117188 524.515625 C 352.859375 540.695312 388.945312 539.773438 419.960938 524.464844 C 490.082031 527.535156 551.25 566.949219 625.683594 535.460938 C 574.496094 597.949219 578.328125 665.285156 439.054688 696.882812 M 42.222656 514.273438 C 98.21875 523.75 102.46875 592.445312 150.476562 649.222656 C 198.375 706.265625 294.335938 726.535156 362.136719 722.109375 C 362.636719 722.109375 363.257812 722.109375 363.753906 722.109375 C 417.75 725.617188 487.652344 712.625 535.660156 683.351562 C 623.417969 628.085938 614.574219 526.675781 683.078125 514.382812 C 703.679688 515.246094 712.152344 502.464844 710.425781 500.847656 C 709.183594 499.664062 704.546875 503.761719 694.890625 504.40625 C 668.996094 505.972656 673.800781 495.132812 501.410156 372.804688 C 435.171875 327.460938 407.875 392.644531 361.382812 400.675781 C 315.15625 392.695312 288.347656 326.925781 221.300781 372.804688 C 48.425781 495.511719 53.765625 505.972656 27.820312 504.40625 C 18.21875 503.761719 13.527344 499.664062 12.339844 500.847656 C 10.238281 502.734375 20.644531 516.484375 42.222656 514.273438 " fill-opacity="1" fill-rule="nonzero"/><path fill="#cccccc" d="M 362.945312 706.261719 C 338.539062 706.261719 314.128906 703.136719 286.839844 696.882812 C 149.886719 665.828125 151.070312 599.511719 101.71875 537.351562 C 151.070312 599.511719 149.886719 665.828125 286.839844 696.882812 C 314.128906 703.132812 338.542969 706.261719 362.949219 706.261719 C 370.671875 706.261719 378.394531 705.949219 386.210938 705.320312 C 378.394531 705.949219 370.667969 706.261719 362.945312 706.261719 M 438 697.125 C 438.351562 697.042969 438.703125 696.960938 439.054688 696.882812 C 578.328125 665.285156 574.496094 597.949219 625.683594 535.460938 C 574.496094 597.949219 578.328125 665.285156 439.054688 696.882812 C 438.703125 696.960938 438.351562 697.042969 438 697.125 M 157.546875 547.589844 C 139.640625 547.59375 121.207031 544.816406 101.71875 537.351562 C 121.171875 544.804688 139.597656 547.574219 157.503906 547.574219 C 183.007812 547.574219 207.457031 541.953125 232.3125 536.242188 C 207.472656 541.960938 183.046875 547.589844 157.546875 547.589844 M 565.308594 547.589844 C 565.46875 547.589844 565.632812 547.589844 565.789062 547.589844 C 565.632812 547.589844 565.46875 547.589844 565.308594 547.589844 M 563.675781 547.582031 C 536.152344 547.328125 509.730469 540.671875 482.964844 534.539062 C 509.730469 540.671875 536.152344 547.324219 563.675781 547.582031 M 369.902344 536.304688 C 369.902344 536.304688 369.902344 536.304688 369.90625 536.304688 C 369.902344 536.304688 369.902344 536.304688 369.902344 536.304688 M 369.894531 536.304688 C 353.363281 536.300781 336.640625 532.570312 320.699219 524.800781 C 336.640625 532.570312 353.367188 536.300781 369.894531 536.304688 M 625.0625 535.726562 C 625.128906 535.695312 625.1875 535.671875 625.253906 535.644531 C 625.1875 535.671875 625.128906 535.695312 625.0625 535.726562 M 625.386719 535.585938 C 625.488281 535.546875 625.585938 535.503906 625.683594 535.460938 C 625.585938 535.503906 625.488281 535.546875 625.386719 535.585938 M 569.660156 533.359375 C 545.25 533.363281 522.59375 528.449219 499.589844 523.640625 C 522.589844 528.449219 545.25 533.359375 569.660156 533.359375 C 587.710938 533.359375 606.710938 530.675781 627.519531 523.277344 C 642.066406 518.042969 652.605469 512.503906 659.015625 509.324219 C 652.605469 512.503906 642.066406 518.042969 627.519531 523.277344 C 606.714844 530.675781 587.707031 533.359375 569.660156 533.359375 M 153.5625 533.160156 C 130.960938 533.160156 106.925781 529.117188 80.355469 517.292969 C 61.789062 505.167969 56.0625 511.789062 69.007812 504.449219 C 56.0625 511.789062 61.789062 505.167969 80.355469 517.292969 C 106.921875 529.117188 130.960938 533.15625 153.5625 533.160156 M 214.023438 525.652344 C 216.996094 525.050781 219.960938 524.429688 222.921875 523.816406 C 227.101562 522.941406 231.273438 522.070312 235.445312 521.226562 C 231.273438 522.070312 227.101562 522.941406 222.921875 523.816406 C 219.960938 524.429688 216.996094 525.050781 214.023438 525.652344 M 320.644531 524.777344 C 320.617188 524.765625 320.585938 524.746094 320.558594 524.734375 C 320.585938 524.746094 320.617188 524.765625 320.644531 524.777344 M 419.550781 524.664062 C 419.578125 524.652344 419.605469 524.640625 419.632812 524.625 C 419.605469 524.640625 419.578125 524.652344 419.550781 524.664062 M 419.816406 524.535156 C 419.867188 524.511719 419.914062 524.488281 419.960938 524.464844 C 419.914062 524.488281 419.867188 524.511719 419.816406 524.535156 M 421.128906 524.519531 C 420.996094 524.511719 420.867188 524.503906 420.738281 524.5 C 420.867188 524.503906 420.996094 524.511719 421.128906 524.519531 M 420.492188 524.488281 C 420.316406 524.480469 420.136719 524.472656 419.960938 524.464844 C 420.136719 524.472656 420.316406 524.480469 420.492188 524.488281 M 370.492188 521.664062 C 370.601562 521.664062 370.707031 521.664062 370.820312 521.664062 C 370.707031 521.664062 370.601562 521.664062 370.492188 521.664062 M 370.457031 521.664062 C 369.261719 521.664062 368.050781 521.644531 366.832031 521.605469 C 368.046875 521.644531 369.265625 521.664062 370.457031 521.664062 M 303.839844 514.992188 C 299.464844 514.640625 295.128906 514.476562 290.839844 514.472656 C 295.132812 514.476562 299.460938 514.640625 303.839844 514.992188 M 436.304688 514.597656 C 439.84375 512 443.070312 509.253906 445.9375 506.515625 C 443.070312 509.253906 439.84375 512 436.304688 514.601562 M 289.621094 514.472656 C 289.957031 514.472656 290.296875 514.472656 290.636719 514.472656 C 290.296875 514.472656 289.957031 514.472656 289.621094 514.472656 M 328.417969 513.585938 C 317.042969 509.179688 307.308594 503.519531 299.835938 498.046875 C 290.894531 491.554688 284.652344 485.515625 280.652344 481.921875 C 284.652344 485.515625 290.894531 491.554688 299.835938 498.046875 C 307.308594 503.519531 317.042969 509.179688 328.417969 513.585938 M 300.832031 512.472656 C 282.316406 498.050781 274.085938 481.53125 275.160156 478.929688 C 274.089844 481.535156 282.316406 498.050781 300.832031 512.472656 M 421.199219 510.09375 C 425.890625 507.859375 430.171875 505.464844 434.046875 503.074219 C 449.085938 493.78125 457.933594 484.484375 460.46875 484.484375 C 460.644531 484.484375 460.789062 484.53125 460.898438 484.621094 C 460.789062 484.53125 460.644531 484.484375 460.46875 484.484375 C 457.933594 484.484375 449.085938 493.78125 434.046875 503.074219 C 430.171875 505.464844 425.890625 507.859375 421.199219 510.09375 M 75.859375 500.265625 C 76.277344 499.996094 76.699219 499.722656 77.117188 499.453125 C 76.699219 499.722656 76.277344 499.996094 75.859375 500.265625 M 77.21875 499.390625 C 131.109375 464.738281 167.765625 438.28125 194.121094 418.960938 C 167.765625 438.28125 131.109375 464.738281 77.21875 499.390625 M 454.902344 496.675781 C 458.980469 491.460938 461.21875 487.1875 461.222656 485.410156 C 461.21875 487.1875 458.980469 491.460938 454.902344 496.675781 M 361.296875 411.246094 C 334.480469 411.242188 314.890625 395.234375 294.335938 384.933594 C 283.476562 379.5625 275.355469 376.675781 267.371094 376.675781 C 264.105469 376.675781 260.855469 377.15625 257.453125 378.15625 C 260.855469 377.15625 264.105469 376.675781 267.371094 376.675781 C 275.355469 376.675781 283.472656 379.558594 294.335938 384.933594 C 314.890625 395.234375 334.484375 411.242188 361.296875 411.246094 M 361.683594 411.242188 C 361.691406 411.242188 361.699219 411.242188 361.707031 411.242188 C 361.699219 411.242188 361.691406 411.242188 361.683594 411.242188 M 361.707031 411.242188 C 401.796875 410.726562 423.875 377.488281 454.820312 377.488281 C 464.949219 377.488281 476.03125 381.050781 489.003906 390.488281 C 476.03125 381.054688 464.945312 377.488281 454.820312 377.488281 C 423.871094 377.488281 401.800781 410.726562 361.707031 411.242188 " fill-opacity="1" fill-rule="nonzero"/><path fill="#cc0052" d="M 569.660156 533.359375 C 545.25 533.359375 522.589844 528.449219 499.589844 523.640625 C 479.246094 519.386719 458.632812 515.214844 436.304688 514.597656 C 439.84375 512 443.070312 509.253906 445.9375 506.515625 C 448.804688 505.625 451.550781 505.144531 454.671875 505.144531 C 461.035156 505.144531 468.945312 507.152344 482.511719 511.816406 C 514.496094 522.816406 537.359375 526.582031 555.535156 526.582031 C 591.683594 526.582031 609.242188 511.664062 642.917969 509.082031 C 502.765625 424.585938 489.917969 389.351562 457.125 389.351562 C 456.265625 389.351562 455.382812 389.375 454.492188 389.421875 C 435.820312 390.441406 421.242188 404.15625 405.777344 412.945312 C 392.417969 420.539062 381.484375 423.460938 371.890625 423.460938 C 355.8125 423.460938 343.5 415.246094 329.90625 407.023438 C 316.304688 398.800781 301.417969 390.585938 280.160156 390.585938 C 266.316406 390.585938 249.765625 394.070312 229.117188 403.320312 C 173.121094 428.402344 133.804688 489.28125 69.898438 507.699219 C 99.441406 510.382812 136.953125 520.027344 158.699219 520.027344 C 159.542969 520.027344 160.363281 520.011719 161.160156 519.980469 C 205.488281 518.308594 290.140625 505.730469 290.746094 505.671875 C 281 499.039062 272.652344 490.871094 269.394531 478.984375 C 269.054688 477.746094 269.40625 477.210938 270.324219 477.210938 C 271.320312 477.210938 272.988281 477.84375 275.160156 478.929688 C 274.085938 481.53125 282.316406 498.050781 300.832031 512.472656 C 301.941406 513.332031 303.082031 514.1875 304.261719 515.027344 C 304.121094 515.015625 303.980469 515.003906 303.839844 514.992188 C 299.460938 514.640625 295.132812 514.476562 290.839844 514.472656 C 290.773438 514.472656 290.703125 514.472656 290.636719 514.472656 C 290.296875 514.472656 289.957031 514.472656 289.621094 514.472656 C 271.101562 514.582031 253.28125 517.625 235.445312 521.226562 C 231.273438 522.070312 227.101562 522.941406 222.921875 523.816406 C 219.960938 524.429688 216.996094 525.050781 214.023438 525.652344 C 194.511719 529.640625 174.660156 533.160156 153.5625 533.160156 C 130.960938 533.15625 106.921875 529.117188 80.355469 517.292969 C 61.789062 505.167969 56.0625 511.789062 69.007812 504.449219 C 70.425781 503.648438 72.066406 502.675781 73.941406 501.496094 C 74.582031 501.085938 75.222656 500.675781 75.859375 500.265625 C 76.277344 499.996094 76.699219 499.722656 77.117188 499.453125 C 77.152344 499.433594 77.1875 499.410156 77.21875 499.390625 C 131.109375 464.738281 167.765625 438.28125 194.121094 418.960938 C 226.488281 395.242188 243.324219 382.289062 257.453125 378.15625 C 260.855469 377.15625 264.105469 376.675781 267.371094 376.675781 C 275.355469 376.675781 283.476562 379.5625 294.335938 384.933594 C 314.890625 395.234375 334.480469 411.242188 361.296875 411.246094 C 361.300781 411.246094 361.300781 411.246094 361.304688 411.246094 C 361.429688 411.246094 361.554688 411.246094 361.683594 411.242188 C 361.691406 411.242188 361.699219 411.242188 361.707031 411.242188 C 401.800781 410.726562 423.871094 377.488281 454.820312 377.488281 C 464.945312 377.488281 476.03125 381.054688 489.003906 390.488281 C 502.292969 400.121094 627.578125 491.117188 659.308594 507.492188 C 659.285156 508.113281 659.183594 508.726562 659.015625 509.324219 C 652.605469 512.503906 642.066406 518.042969 627.519531 523.277344 C 606.710938 530.675781 587.710938 533.359375 569.660156 533.359375 M 370.492188 521.664062 C 370.480469 521.664062 370.46875 521.664062 370.457031 521.664062 C 369.265625 521.664062 368.046875 521.644531 366.832031 521.605469 C 352.804688 521.148438 339.792969 517.992188 328.417969 513.585938 C 317.042969 509.179688 307.308594 503.519531 299.835938 498.046875 C 290.894531 491.554688 284.652344 485.515625 280.652344 481.921875 C 289.308594 486.886719 301.625 494.6875 313.0625 499.757812 C 333.855469 508.980469 350.269531 514.203125 368.996094 514.203125 C 382.996094 514.203125 398.296875 511.28125 417.679688 504.929688 C 442.929688 496.648438 452.726562 485.910156 465.511719 480.945312 C 465.851562 480.8125 466.179688 480.753906 466.492188 480.753906 C 468.710938 480.753906 470.199219 483.738281 468.578125 485.558594 C 466.058594 488.394531 461.03125 492.355469 454.902344 496.675781 C 458.980469 491.460938 461.21875 487.1875 461.222656 485.410156 C 461.222656 485.023438 461.117188 484.757812 460.898438 484.621094 C 460.789062 484.53125 460.644531 484.484375 460.46875 484.484375 C 457.933594 484.484375 449.085938 493.78125 434.046875 503.074219 C 430.171875 505.464844 425.890625 507.859375 421.199219 510.09375 C 407.742188 516.503906 390.933594 521.605469 370.820312 521.664062 C 370.707031 521.664062 370.601562 521.664062 370.492188 521.664062 " fill-opacity="1" fill-rule="nonzero"/><path fill="#cc0052" d="M 362.949219 706.261719 C 338.542969 706.261719 314.128906 703.132812 286.839844 696.882812 C 149.886719 665.828125 151.070312 599.511719 101.71875 537.351562 C 121.207031 544.816406 139.640625 547.59375 157.546875 547.589844 C 183.046875 547.589844 207.472656 541.960938 232.3125 536.242188 C 232.714844 536.152344 233.113281 536.058594 233.515625 535.964844 C 258.78125 530.160156 284.488281 524.355469 312.171875 524.355469 C 314.800781 524.355469 317.449219 524.40625 320.117188 524.515625 C 320.265625 524.589844 320.410156 524.660156 320.558594 524.734375 C 320.585938 524.746094 320.617188 524.765625 320.644531 524.777344 C 320.664062 524.785156 320.679688 524.792969 320.699219 524.800781 C 336.640625 532.570312 353.363281 536.300781 369.894531 536.304688 C 369.898438 536.304688 369.898438 536.304688 369.902344 536.304688 C 369.902344 536.304688 369.902344 536.304688 369.90625 536.304688 C 387.015625 536.304688 403.917969 532.308594 419.550781 524.664062 C 419.578125 524.652344 419.605469 524.640625 419.632812 524.625 C 419.695312 524.59375 419.753906 524.566406 419.816406 524.535156 C 419.867188 524.511719 419.914062 524.488281 419.960938 524.464844 C 420.136719 524.472656 420.316406 524.480469 420.492188 524.488281 C 420.574219 524.492188 420.65625 524.496094 420.738281 524.5 C 420.867188 524.503906 420.996094 524.511719 421.128906 524.519531 C 442.34375 525.570312 462.757812 529.90625 482.964844 534.539062 C 509.730469 540.671875 536.152344 547.328125 563.675781 547.582031 C 564.21875 547.585938 564.765625 547.589844 565.308594 547.589844 C 565.46875 547.589844 565.632812 547.589844 565.789062 547.589844 C 584.847656 547.535156 604.449219 544.34375 625.0625 535.726562 C 625.128906 535.695312 625.1875 535.671875 625.253906 535.644531 C 625.296875 535.625 625.347656 535.605469 625.386719 535.585938 C 625.488281 535.546875 625.585938 535.503906 625.683594 535.460938 C 574.496094 597.949219 578.328125 665.285156 439.054688 696.882812 C 438.703125 696.960938 438.351562 697.042969 438 697.125 C 419.746094 701.261719 402.769531 703.992188 386.210938 705.320312 C 378.394531 705.949219 370.671875 706.261719 362.949219 706.261719 M 131.910156 551.0625 C 173.582031 599.863281 161.953125 657.597656 300.078125 681.046875 C 325.492188 685.363281 350.328125 687.851562 374.441406 687.851562 C 436.632812 687.851562 493.960938 671.296875 543.527344 626.875 C 594.332031 581.339844 584.703125 577.222656 602.9375 550.273438 C 588.507812 554.160156 573.132812 555.75 557.453125 555.75 C 527.289062 555.75 496.003906 549.851562 468.21875 543.054688 C 452.847656 539.300781 443.746094 537.285156 434.449219 537.285156 C 428.21875 537.285156 421.898438 538.1875 413.546875 540.078125 C 399.195312 543.328125 385.824219 547.34375 371.382812 547.34375 C 368.671875 547.34375 365.917969 547.199219 363.121094 546.886719 C 344.765625 544.820312 327.480469 537.820312 308.890625 537.300781 C 307.417969 537.257812 305.957031 537.238281 304.503906 537.238281 C 282.15625 537.238281 261.855469 541.941406 241.078125 546.644531 C 220.296875 551.347656 199.046875 556.050781 174.796875 556.050781 C 161.535156 556.050781 147.375 554.644531 131.910156 551.0625 " fill-opacity="1" fill-rule="nonzero"/><path fill="#000000" d="M 372.847656 707.640625 C 342.832031 707.640625 312.617188 704.0625 283.570312 698.292969 C 126.257812 667.03125 155.820312 577.894531 95.957031 543.144531 C 88.222656 538.65625 92.242188 527.949219 99.589844 527.949219 C 100.738281 527.949219 101.972656 528.210938 103.25 528.796875 C 110.144531 531.960938 116.066406 536.015625 121.421875 540.601562 C 130.238281 541.492188 138.773438 541.886719 147.066406 541.886719 C 176.097656 541.886719 202.171875 537.085938 227.085938 532.289062 C 252 527.492188 275.746094 522.695312 300.125 522.695312 C 307.410156 522.695312 314.757812 523.125 322.207031 524.109375 C 326.027344 524.617188 328.027344 525.058594 328.300781 525.058594 C 328.847656 525.054688 322.488281 523.300781 309.9375 516.816406 C 309.089844 517.5625 307.996094 517.984375 306.882812 517.984375 C 306.230469 517.984375 305.566406 517.832031 304.949219 517.515625 C 306.085938 518.101562 301.488281 517.855469 300.15625 518.011719 C 283.738281 519.914062 230.566406 534.511719 171.628906 534.511719 C 134.3125 534.511719 94.679688 528.65625 60.609375 510.027344 C 59.835938 510.1875 59.089844 510.394531 58.316406 510.546875 C 58.226562 510.5625 58.140625 510.570312 58.054688 510.570312 C 56.613281 510.570312 55.914062 508.160156 57.28125 507.460938 C 128.972656 470.882812 191.21875 373.636719 274.84375 373.636719 C 286.207031 373.636719 297.976562 375.429688 310.207031 379.421875 C 333.671875 387.078125 349.816406 402.691406 367.777344 404.273438 C 368.941406 404.375 370.085938 404.425781 371.222656 404.425781 C 385.425781 404.425781 397.753906 396.71875 410.726562 389.011719 C 423.703125 381.308594 437.332031 373.601562 454.144531 373.601562 C 460.378906 373.601562 467.054688 374.660156 474.289062 377.171875 C 508.5 389.039062 542.785156 434.015625 655.984375 501.46875 C 658.441406 502.933594 659.398438 505.238281 659.308594 507.492188 C 627.578125 491.117188 502.292969 400.121094 489.003906 390.488281 C 476.03125 381.050781 464.949219 377.488281 454.820312 377.488281 C 423.875 377.488281 401.796875 410.726562 361.707031 411.242188 C 361.699219 411.242188 361.691406 411.242188 361.683594 411.242188 C 361.554688 411.246094 361.429688 411.246094 361.304688 411.246094 C 361.300781 411.246094 361.300781 411.246094 361.296875 411.246094 C 334.484375 411.242188 314.890625 395.234375 294.335938 384.933594 C 283.472656 379.558594 275.355469 376.675781 267.371094 376.675781 C 264.105469 376.675781 260.855469 377.15625 257.453125 378.15625 C 243.324219 382.289062 226.488281 395.242188 194.121094 418.960938 C 167.765625 438.28125 131.109375 464.738281 77.21875 499.390625 C 77.1875 499.410156 77.152344 499.433594 77.117188 499.453125 C 76.699219 499.722656 76.277344 499.996094 75.859375 500.265625 C 75.222656 500.675781 74.582031 501.085938 73.941406 501.496094 C 72.066406 502.675781 70.425781 503.648438 69.007812 504.449219 C 56.0625 511.789062 61.789062 505.167969 80.355469 517.292969 C 106.925781 529.117188 130.960938 533.160156 153.5625 533.160156 C 174.660156 533.160156 194.511719 529.640625 214.023438 525.652344 C 216.996094 525.050781 219.960938 524.429688 222.921875 523.816406 C 227.101562 522.941406 231.273438 522.070312 235.445312 521.226562 C 253.28125 517.625 271.101562 514.582031 289.621094 514.472656 C 289.957031 514.472656 290.296875 514.472656 290.636719 514.472656 C 290.703125 514.472656 290.773438 514.472656 290.839844 514.472656 C 295.128906 514.476562 299.464844 514.640625 303.839844 514.992188 C 303.980469 515.003906 304.121094 515.015625 304.261719 515.027344 C 303.082031 514.1875 301.941406 513.332031 300.832031 512.472656 C 282.316406 498.050781 274.089844 481.535156 275.160156 478.929688 C 276.742188 479.714844 278.59375 480.734375 280.652344 481.921875 C 284.652344 485.515625 290.894531 491.554688 299.835938 498.046875 C 307.308594 503.519531 317.042969 509.179688 328.417969 513.585938 C 339.792969 517.992188 352.804688 521.148438 366.832031 521.605469 C 368.050781 521.644531 369.261719 521.664062 370.457031 521.664062 C 370.46875 521.664062 370.480469 521.664062 370.492188 521.664062 C 370.601562 521.664062 370.707031 521.664062 370.820312 521.664062 C 390.933594 521.605469 407.742188 516.503906 421.199219 510.09375 C 425.890625 507.859375 430.171875 505.464844 434.046875 503.074219 C 449.085938 493.78125 457.933594 484.484375 460.46875 484.484375 C 460.644531 484.484375 460.789062 484.53125 460.898438 484.621094 C 461.117188 484.757812 461.222656 485.023438 461.222656 485.410156 C 461.21875 487.1875 458.980469 491.460938 454.902344 496.675781 C 439.640625 507.429688 417.519531 520.402344 410.128906 523.675781 C 416.339844 522.457031 422.355469 521.9375 428.320312 521.9375 C 460.398438 521.9375 490.867188 537.015625 540.425781 539.894531 C 469.945312 529.007812 475.921875 524.929688 459.089844 522.234375 C 454.722656 521.53125 450.265625 521.929688 445.921875 521.1875 C 440.855469 520.324219 436.132812 519.160156 430.9375 518.925781 C 427.660156 518.777344 426.835938 514.695312 429.847656 513.351562 C 436.71875 510.273438 441.46875 507.898438 445.9375 506.515625 C 443.070312 509.253906 439.84375 512 436.304688 514.597656 C 458.632812 515.214844 479.246094 519.386719 499.589844 523.640625 C 522.59375 528.449219 545.25 533.363281 569.660156 533.359375 C 587.707031 533.359375 606.714844 530.675781 627.519531 523.277344 C 642.066406 518.042969 652.605469 512.503906 659.015625 509.324219 C 658.746094 510.246094 658.304688 511.121094 657.730469 511.867188 C 657.164062 517.726562 631.796875 526.558594 626.0625 528.316406 C 631.367188 529.152344 634.761719 536.914062 629.003906 539.847656 C 613.921875 547.53125 611.320312 574.003906 594.25 598.394531 C 579.140625 619.988281 558.15625 638.871094 537.769531 655.398438 C 490.457031 693.742188 432.039062 707.644531 372.847656 707.640625 M 101.71875 537.351562 C 151.070312 599.511719 149.886719 665.828125 286.839844 696.882812 C 314.128906 703.136719 338.539062 706.261719 362.945312 706.261719 C 370.667969 706.261719 378.394531 705.949219 386.210938 705.320312 C 402.769531 703.992188 419.746094 701.261719 438 697.125 C 438.351562 697.042969 438.703125 696.960938 439.054688 696.882812 C 578.328125 665.285156 574.496094 597.949219 625.683594 535.460938 C 625.585938 535.503906 625.488281 535.546875 625.386719 535.585938 C 625.347656 535.605469 625.296875 535.625 625.253906 535.644531 C 625.1875 535.671875 625.128906 535.695312 625.0625 535.726562 C 604.449219 544.34375 584.847656 547.535156 565.789062 547.589844 C 565.632812 547.589844 565.46875 547.589844 565.308594 547.589844 C 564.765625 547.589844 564.21875 547.585938 563.675781 547.582031 C 536.152344 547.324219 509.730469 540.671875 482.964844 534.539062 C 462.757812 529.90625 442.34375 525.570312 421.128906 524.519531 C 420.996094 524.511719 420.867188 524.503906 420.738281 524.5 C 420.65625 524.496094 420.574219 524.492188 420.492188 524.488281 C 420.316406 524.480469 420.136719 524.472656 419.960938 524.464844 C 419.914062 524.488281 419.867188 524.511719 419.816406 524.535156 C 419.753906 524.566406 419.695312 524.59375 419.632812 524.625 C 419.605469 524.640625 419.578125 524.652344 419.550781 524.664062 C 403.917969 532.308594 387.015625 536.304688 369.90625 536.304688 C 369.902344 536.304688 369.902344 536.304688 369.902344 536.304688 C 369.898438 536.304688 369.898438 536.304688 369.894531 536.304688 C 353.367188 536.300781 336.640625 532.570312 320.699219 524.800781 C 320.679688 524.792969 320.664062 524.785156 320.644531 524.777344 C 320.617188 524.765625 320.585938 524.746094 320.558594 524.734375 C 320.410156 524.660156 320.265625 524.589844 320.117188 524.515625 C 317.449219 524.40625 314.800781 524.355469 312.171875 524.355469 C 284.488281 524.355469 258.78125 530.160156 233.515625 535.964844 C 233.113281 536.058594 232.714844 536.152344 232.3125 536.242188 C 207.457031 541.953125 183.007812 547.574219 157.503906 547.574219 C 139.597656 547.574219 121.171875 544.804688 101.71875 537.351562 " fill-opacity="1" fill-rule="nonzero"/><path fill="#ff3386" d="M 494.289062 590.265625 C 488.78125 579.691406 458.609375 584.960938 414.144531 589.960938 C 302.417969 600.535156 249.535156 584.65625 242.582031 601.519531 C 236.777344 615.375 287.839844 655.503906 370.953125 652.144531 C 449.152344 648.3125 502.558594 605.910156 494.289062 590.265625 " fill-opacity="1" fill-rule="nonzero"/><path fill="#ff3386" d="M 263.425781 419.160156 C 261.046875 413.617188 252.292969 411.261719 239.914062 412.941406 C 189.269531 419.710938 146.570312 474.113281 160.125 488.035156 C 175.855469 504.203125 272.316406 439.882812 263.425781 419.160156 " fill-opacity="1" fill-rule="nonzero"/><path fill="#ff3386" d="M 413 506.890625 C 483.871094 491.90625 511.488281 370.371094 421.890625 453.058594 C 411.164062 462.898438 383.59375 489.074219 390.246094 502 C 392.992188 507.351562 401.441406 509.367188 413 506.890625 " fill-opacity="1" fill-rule="nonzero"/><path fill="#ffffff" d="M 306.769531 601.152344 C 291.421875 598.0625 258.433594 590.472656 250.933594 601.167969 C 247.484375 606.042969 249.613281 614.570312 257.875 623.425781 C 293.273438 661.796875 363.261719 643.996094 358.378906 622.472656 C 355.53125 609.722656 321.011719 603.929688 306.769531 601.152344 " fill-opacity="1" fill-rule="nonzero"/><path fill="#ffffff" d="M 482.359375 604.828125 C 474.316406 578.945312 416.347656 589.238281 417.722656 616.320312 C 418.320312 628.421875 434.808594 637.445312 454.207031 633.980469 C 473.613281 630.546875 485.976562 616.394531 482.359375 604.828125 " fill-opacity="1" fill-rule="nonzero"/><path fill="#ffffff" d="M 436.71875 455.28125 C 429.738281 453.90625 420.0625 465.027344 409.195312 476.113281 C 398.699219 486.597656 387.128906 496.660156 388.617188 503.832031 C 390.28125 512.085938 412.152344 514.847656 430.070312 496.777344 C 448.085938 478.578125 444.808594 456.824219 436.71875 455.28125 " fill-opacity="1" fill-rule="nonzero"/><g clip-path="url(#1d91f2578a)"><path fill="#010101" d="M 766.757812 148.441406 C 750.21875 138.710938 731.347656 138.835938 715.167969 146.597656 C 710.644531 122.871094 694.558594 101.789062 673.128906 90.335938 C 660.242188 83.457031 646.101562 81.035156 631.699219 83.054688 C 616.050781 85.246094 603.34375 95.515625 593.992188 107.644531 C 592.585938 108.066406 591.351562 108.824219 590.351562 109.816406 C 576.695312 106.113281 562.453125 104.925781 548.585938 108.492188 C 524.324219 114.734375 513.1875 136.957031 511.128906 160.246094 C 511.09375 160.632812 511.082031 161.011719 511.085938 161.382812 C 507.757812 159.203125 503.976562 157.636719 499.722656 156.894531 C 488.992188 155.019531 477.53125 158.007812 469.847656 165.949219 C 462.695312 173.339844 461.902344 183.875 465.160156 193.382812 C 443.738281 190.1875 422.316406 192.886719 408.703125 212.804688 C 400.089844 225.402344 397.390625 242.796875 397.289062 257.730469 C 397.167969 274.570312 402.960938 290.871094 414.664062 303.066406 C 441.378906 330.945312 492.820312 332.902344 518.949219 305.984375 C 527.28125 341.285156 563.945312 360.347656 597.726562 364.996094 C 615.765625 367.476562 634.121094 366.011719 649.042969 354.585938 C 660.261719 345.992188 667.640625 334.035156 672.179688 320.9375 C 681.203125 324.925781 691 327.609375 700.40625 329.335938 C 714.019531 331.851562 727.332031 331.769531 738.472656 322.75 C 744.859375 317.582031 749.160156 309.957031 751.667969 301.914062 C 758.40625 301.890625 765.019531 300.492188 770.953125 296.691406 C 779.878906 290.984375 784.601562 280.867188 786.164062 270.695312 C 787.019531 265.148438 787.289062 259.566406 786.78125 253.972656 C 786.488281 250.773438 785.441406 247.914062 783.753906 245.191406 C 783.542969 244.84375 783.300781 244.511719 783.058594 244.179688 L 783.109375 244.089844 C 786.851562 239.480469 791.855469 236.519531 793.992188 230.675781 C 796.699219 223.28125 798.316406 216.636719 798.632812 208.691406 C 799.617188 183.800781 788.523438 161.238281 766.757812 148.441406 " fill-opacity="1" fill-rule="nonzero"/></g><path fill="#ffffff" d="M 760.875 156.839844 C 744.90625 148.191406 726.699219 148.300781 711.082031 155.195312 C 706.714844 134.109375 691.191406 115.363281 670.507812 105.1875 C 658.070312 99.0625 644.421875 96.910156 630.523438 98.703125 C 615.421875 100.652344 603.15625 109.785156 594.132812 120.570312 C 592.773438 120.941406 591.585938 121.613281 590.617188 122.5 C 577.441406 119.207031 563.6875 118.148438 550.304688 121.324219 C 526.890625 126.875 516.144531 146.628906 514.160156 167.335938 C 514.125 167.6875 514.109375 168.015625 514.117188 168.34375 C 510.90625 166.414062 507.253906 165.019531 503.148438 164.355469 C 492.789062 162.691406 481.734375 165.34375 474.320312 172.402344 C 467.414062 178.980469 466.65625 188.34375 469.792969 196.800781 C 449.117188 193.953125 428.445312 196.355469 415.300781 214.066406 C 406.992188 225.269531 404.394531 240.734375 404.292969 254.011719 C 404.175781 268.980469 409.769531 283.472656 421.054688 294.320312 C 446.847656 319.109375 496.484375 320.847656 521.703125 296.914062 C 529.746094 328.304688 565.128906 345.25 597.738281 349.378906 C 615.148438 351.589844 632.859375 350.285156 647.261719 340.121094 C 658.089844 332.484375 665.210938 321.859375 669.59375 310.210938 C 678.300781 313.757812 687.757812 316.140625 696.835938 317.679688 C 709.972656 319.910156 722.820312 319.84375 733.570312 311.820312 C 739.734375 307.226562 743.886719 300.445312 746.308594 293.296875 C 752.8125 293.277344 759.191406 292.03125 764.921875 288.652344 C 773.535156 283.578125 778.09375 274.582031 779.601562 265.539062 C 780.429688 260.605469 780.683594 255.644531 780.195312 250.671875 C 779.917969 247.828125 778.902344 245.285156 777.277344 242.863281 C 777.070312 242.550781 776.832031 242.261719 776.605469 241.960938 L 776.65625 241.882812 C 780.265625 237.785156 785.09375 235.152344 787.15625 229.957031 C 789.765625 223.382812 791.332031 217.476562 791.636719 210.414062 C 792.585938 188.28125 781.878906 168.21875 760.875 156.839844 " fill-opacity="1" fill-rule="nonzero"/><path fill="#010101" d="M 498.628906 281.042969 C 498.628906 281.042969 502.917969 300.828125 529.863281 305.039062 C 556.8125 309.242188 559.929688 301.492188 559.929688 301.492188 C 559.929688 301.492188 521.394531 299.6875 498.628906 281.042969 " fill-opacity="1" fill-rule="nonzero"/><path fill="#010101" d="M 483.820312 191.730469 C 483.820312 191.730469 477.398438 186.855469 468.074219 193.6875 C 458.292969 200.859375 460.011719 207.890625 460.011719 207.890625 C 460.011719 207.890625 471.066406 194.785156 483.820312 191.730469 " fill-opacity="1" fill-rule="nonzero"/><path fill="#010101" d="M 637.914062 310.1875 C 637.914062 310.1875 666.464844 314.535156 688.613281 285.152344 C 688.613281 285.152344 688.882812 306.191406 670.46875 313.65625 C 652.058594 321.128906 637.914062 310.1875 637.914062 310.1875 " fill-opacity="1" fill-rule="nonzero"/><path fill="#010101" d="M 491.875 358.601562 C 486.925781 346.71875 507.238281 330.507812 519.601562 335.371094 C 531.960938 340.242188 546.988281 355.59375 544.34375 364.210938 C 541.699219 372.820312 535.335938 383.304688 523.347656 382.558594 C 511.355469 381.808594 495.621094 367.582031 491.875 358.601562 " fill-opacity="1" fill-rule="nonzero"/><path fill="#ffffff" d="M 499.714844 353.136719 C 496.253906 344.832031 510.445312 333.503906 519.089844 336.902344 C 527.722656 340.304688 538.222656 351.03125 536.378906 357.054688 C 534.527344 363.070312 530.082031 370.394531 521.703125 369.871094 C 513.328125 369.347656 502.332031 359.410156 499.714844 353.136719 " fill-opacity="1" fill-rule="nonzero"/><path fill="#010101" d="M 486.175781 392.773438 C 486.394531 383.796875 497.609375 378.164062 503.976562 381.160156 C 510.34375 384.15625 518.585938 395.015625 517.835938 402.132812 C 517.089844 409.25 508.476562 414.113281 503.976562 414.863281 C 499.480469 415.613281 485.984375 400.632812 486.175781 392.773438 " fill-opacity="1" fill-rule="nonzero"/><path fill="#ffffff" d="M 490.421875 390.441406 C 490.585938 383.871094 498.792969 379.746094 503.457031 381.941406 C 508.117188 384.132812 514.148438 392.085938 513.601562 397.289062 C 513.050781 402.503906 506.746094 406.066406 503.457031 406.617188 C 500.164062 407.160156 490.28125 396.191406 490.421875 390.441406 " fill-opacity="1" fill-rule="nonzero"/><path fill="#010101" d="M 464.65625 416.800781 C 461.933594 411.347656 463.898438 403.941406 468.589844 402.695312 C 473.277344 401.445312 486.011719 408.5625 486.011719 412.679688 C 486.011719 416.800781 487.144531 425.039062 483.394531 426.910156 C 479.648438 428.785156 467.28125 422.042969 464.65625 416.800781 " fill-opacity="1" fill-rule="nonzero"/><path fill="#ffffff" d="M 465.691406 415.164062 C 463.484375 410.757812 465.078125 404.769531 468.867188 403.757812 C 472.65625 402.75 482.957031 408.5 482.957031 411.832031 C 482.957031 415.164062 483.875 421.828125 480.839844 423.339844 C 477.808594 424.855469 467.816406 419.402344 465.691406 415.164062 " fill-opacity="1" fill-rule="nonzero"/></svg>