<svg xmlns="http://www.w3.org/2000/svg" xmlns:xlink="http://www.w3.org/1999/xlink" width="1080" zoomAndPan="magnify" viewBox="0 0 810 199.499995" height="266" preserveAspectRatio="xMidYMid meet" version="1.0"><defs><clipPath id="aa6e2efc2d"><path d="M 152 71.527344 L 198 71.527344 L 198 101.867188 L 152 101.867188 Z M 152 71.527344 " clip-rule="nonzero"/></clipPath><clipPath id="bd992a230d"><path d="M 149.519531 74.972656 L 195.421875 69.167969 L 199.035156 97.761719 L 153.132812 103.566406 Z M 149.519531 74.972656 " clip-rule="nonzero"/></clipPath><clipPath id="70e2b04a3a"><path d="M 149.519531 74.972656 L 195.421875 69.167969 L 199.035156 97.761719 L 153.132812 103.566406 Z M 149.519531 74.972656 " clip-rule="nonzero"/></clipPath><clipPath id="4df3d1dc69"><path d="M 153 83 L 198 83 L 198 100.855469 L 153 100.855469 Z M 153 83 " clip-rule="nonzero"/></clipPath><clipPath id="decd534c67"><path d="M 149.519531 74.972656 L 195.421875 69.167969 L 199.035156 97.761719 L 153.132812 103.566406 Z M 149.519531 74.972656 " clip-rule="nonzero"/></clipPath><clipPath id="427d407b16"><path d="M 149.519531 74.972656 L 195.421875 69.167969 L 199.035156 97.761719 L 153.132812 103.566406 Z M 149.519531 74.972656 " clip-rule="nonzero"/></clipPath><clipPath id="0d27dace71"><path d="M 152.894531 88.53125 L 197.039062 82.949219 L 198.914062 97.726562 L 154.765625 103.308594 Z M 152.894531 88.53125 " clip-rule="nonzero"/></clipPath><clipPath id="e36ad9ead5"><path d="M 152.894531 88.53125 L 196.984375 82.957031 L 198.851562 97.734375 L 154.765625 103.308594 Z M 152.894531 88.53125 " clip-rule="nonzero"/></clipPath><clipPath id="7c9971a961"><path d="M 152 83 L 198 83 L 198 101.867188 L 152 101.867188 Z M 152 83 " clip-rule="nonzero"/></clipPath><clipPath id="fbc2a30e83"><path d="M 149.519531 74.972656 L 195.421875 69.167969 L 199.035156 97.761719 L 153.132812 103.566406 Z M 149.519531 74.972656 " clip-rule="nonzero"/></clipPath><clipPath id="b72716ab73"><path d="M 149.519531 74.972656 L 195.421875 69.167969 L 199.035156 97.761719 L 153.132812 103.566406 Z M 149.519531 74.972656 " clip-rule="nonzero"/></clipPath><clipPath id="c6ab7a688a"><path d="M 152.019531 88.640625 L 197.039062 82.949219 L 198.929688 97.855469 L 153.902344 103.546875 Z M 152.019531 88.640625 " clip-rule="nonzero"/></clipPath><clipPath id="218572d489"><path d="M 152.019531 88.640625 L 196.984375 82.957031 L 198.851562 97.742188 L 153.886719 103.429688 Z M 152.019531 88.640625 " clip-rule="nonzero"/></clipPath><clipPath id="22cc497ef2"><path d="M 164 82.652344 L 185.914062 82.652344 L 185.914062 88.71875 L 164 88.71875 Z M 164 82.652344 " clip-rule="nonzero"/></clipPath><clipPath id="39a7fcff84"><path d="M 149.519531 74.972656 L 195.421875 69.167969 L 199.035156 97.761719 L 153.132812 103.566406 Z M 149.519531 74.972656 " clip-rule="nonzero"/></clipPath><clipPath id="582d40c7a7"><path d="M 149.519531 74.972656 L 195.421875 69.167969 L 199.035156 97.761719 L 153.132812 103.566406 Z M 149.519531 74.972656 " clip-rule="nonzero"/></clipPath><clipPath id="86c0d092c5"><path d="M 160 81 L 188.949219 81 L 188.949219 88.71875 L 160 88.71875 Z M 160 81 " clip-rule="nonzero"/></clipPath><clipPath id="fd617e8052"><path d="M 149.519531 74.972656 L 195.421875 69.167969 L 199.035156 97.761719 L 153.132812 103.566406 Z M 149.519531 74.972656 " clip-rule="nonzero"/></clipPath><clipPath id="71bdee6bd0"><path d="M 149.519531 74.972656 L 195.421875 69.167969 L 199.035156 97.761719 L 153.132812 103.566406 Z M 149.519531 74.972656 " clip-rule="nonzero"/></clipPath><clipPath id="c8004cd6dd"><path d="M 164 75.574219 L 168.722656 75.574219 L 168.722656 79.617188 L 164 79.617188 Z M 164 75.574219 " clip-rule="nonzero"/></clipPath><clipPath id="b23d6c8e5e"><path d="M 149.519531 74.972656 L 195.421875 69.167969 L 199.035156 97.761719 L 153.132812 103.566406 Z M 149.519531 74.972656 " clip-rule="nonzero"/></clipPath><clipPath id="3dbfeba05d"><path d="M 149.519531 74.972656 L 195.421875 69.167969 L 199.035156 97.761719 L 153.132812 103.566406 Z M 149.519531 74.972656 " clip-rule="nonzero"/></clipPath><clipPath id="3451d6cf9d"><path d="M 163 79.617188 L 165.6875 79.617188 L 165.6875 82 L 163 82 Z M 163 79.617188 " clip-rule="nonzero"/></clipPath><clipPath id="6311ac8f9a"><path d="M 149.519531 74.972656 L 195.421875 69.167969 L 199.035156 97.761719 L 153.132812 103.566406 Z M 149.519531 74.972656 " clip-rule="nonzero"/></clipPath><clipPath id="f3d0b3900b"><path d="M 149.519531 74.972656 L 195.421875 69.167969 L 199.035156 97.761719 L 153.132812 103.566406 Z M 149.519531 74.972656 " clip-rule="nonzero"/></clipPath><clipPath id="d973805e4f"><path d="M 268 71.527344 L 313.34375 71.527344 L 313.34375 101.867188 L 268 101.867188 Z M 268 71.527344 " clip-rule="nonzero"/></clipPath><clipPath id="3d8d0d2f97"><path d="M 265.421875 74.925781 L 311.335938 69.207031 L 314.898438 97.8125 L 268.980469 103.527344 Z M 265.421875 74.925781 " clip-rule="nonzero"/></clipPath><clipPath id="2dba57add8"><path d="M 265.421875 74.925781 L 311.335938 69.207031 L 314.898438 97.8125 L 268.980469 103.527344 Z M 265.421875 74.925781 " clip-rule="nonzero"/></clipPath><clipPath id="a84dee0ff9"><path d="M 268.847656 83 L 313.34375 83 L 313.34375 100.855469 L 268.847656 100.855469 Z M 268.847656 83 " clip-rule="nonzero"/></clipPath><clipPath id="21036f29e9"><path d="M 265.421875 74.925781 L 311.335938 69.207031 L 314.898438 97.8125 L 268.980469 103.527344 Z M 265.421875 74.925781 " clip-rule="nonzero"/></clipPath><clipPath id="530d0b29da"><path d="M 265.421875 74.925781 L 311.335938 69.207031 L 314.898438 97.8125 L 268.980469 103.527344 Z M 265.421875 74.925781 " clip-rule="nonzero"/></clipPath><clipPath id="8cf7b8e06f"><path d="M 268.769531 88.492188 L 312.929688 82.992188 L 314.773438 97.773438 L 270.613281 103.273438 Z M 268.769531 88.492188 " clip-rule="nonzero"/></clipPath><clipPath id="aca7fa6bb4"><path d="M 268.769531 88.492188 L 312.871094 82.996094 L 314.710938 97.777344 L 270.613281 103.273438 Z M 268.769531 88.492188 " clip-rule="nonzero"/></clipPath><clipPath id="a1e8127708"><path d="M 268 83 L 313.34375 83 L 313.34375 101.867188 L 268 101.867188 Z M 268 83 " clip-rule="nonzero"/></clipPath><clipPath id="6b71521111"><path d="M 265.421875 74.925781 L 311.335938 69.207031 L 314.898438 97.8125 L 268.980469 103.527344 Z M 265.421875 74.925781 " clip-rule="nonzero"/></clipPath><clipPath id="dbf1917612"><path d="M 265.421875 74.925781 L 311.335938 69.207031 L 314.898438 97.8125 L 268.980469 103.527344 Z M 265.421875 74.925781 " clip-rule="nonzero"/></clipPath><clipPath id="b463b416a4"><path d="M 267.894531 88.601562 L 312.929688 82.992188 L 314.789062 97.898438 L 269.75 103.511719 Z M 267.894531 88.601562 " clip-rule="nonzero"/></clipPath><clipPath id="92c6cb043b"><path d="M 267.894531 88.601562 L 312.871094 82.996094 L 314.714844 97.785156 L 269.734375 103.390625 Z M 267.894531 88.601562 " clip-rule="nonzero"/></clipPath><clipPath id="34762ace88"><path d="M 280 82.652344 L 301 82.652344 L 301 88 L 280 88 Z M 280 82.652344 " clip-rule="nonzero"/></clipPath><clipPath id="38468bcb37"><path d="M 265.421875 74.925781 L 311.335938 69.207031 L 314.898438 97.8125 L 268.980469 103.527344 Z M 265.421875 74.925781 " clip-rule="nonzero"/></clipPath><clipPath id="c4e7eda978"><path d="M 265.421875 74.925781 L 311.335938 69.207031 L 314.898438 97.8125 L 268.980469 103.527344 Z M 265.421875 74.925781 " clip-rule="nonzero"/></clipPath><clipPath id="fb0519b8f6"><path d="M 276 81 L 305 81 L 305 88.71875 L 276 88.71875 Z M 276 81 " clip-rule="nonzero"/></clipPath><clipPath id="9764c40e6f"><path d="M 265.421875 74.925781 L 311.335938 69.207031 L 314.898438 97.8125 L 268.980469 103.527344 Z M 265.421875 74.925781 " clip-rule="nonzero"/></clipPath><clipPath id="35c0577ffb"><path d="M 265.421875 74.925781 L 311.335938 69.207031 L 314.898438 97.8125 L 268.980469 103.527344 Z M 265.421875 74.925781 " clip-rule="nonzero"/></clipPath><clipPath id="09d7441f7b"><path d="M 280 75.574219 L 285 75.574219 L 285 79.617188 L 280 79.617188 Z M 280 75.574219 " clip-rule="nonzero"/></clipPath><clipPath id="81db217397"><path d="M 265.421875 74.925781 L 311.335938 69.207031 L 314.898438 97.8125 L 268.980469 103.527344 Z M 265.421875 74.925781 " clip-rule="nonzero"/></clipPath><clipPath id="0121245f5c"><path d="M 265.421875 74.925781 L 311.335938 69.207031 L 314.898438 97.8125 L 268.980469 103.527344 Z M 265.421875 74.925781 " clip-rule="nonzero"/></clipPath><clipPath id="a0e56b8f24"><path d="M 279 79.617188 L 281.992188 79.617188 L 281.992188 82 L 279 82 Z M 279 79.617188 " clip-rule="nonzero"/></clipPath><clipPath id="bd8006f905"><path d="M 265.421875 74.925781 L 311.335938 69.207031 L 314.898438 97.8125 L 268.980469 103.527344 Z M 265.421875 74.925781 " clip-rule="nonzero"/></clipPath><clipPath id="edb6b31e9f"><path d="M 265.421875 74.925781 L 311.335938 69.207031 L 314.898438 97.8125 L 268.980469 103.527344 Z M 265.421875 74.925781 " clip-rule="nonzero"/></clipPath><clipPath id="a8f03bc8c4"><path d="M 511 71.527344 L 557 71.527344 L 557 101.867188 L 511 101.867188 Z M 511 71.527344 " clip-rule="nonzero"/></clipPath><clipPath id="6bdf44f7e4"><path d="M 508.6875 74.925781 L 554.605469 69.207031 L 558.164062 97.8125 L 512.246094 103.527344 Z M 508.6875 74.925781 " clip-rule="nonzero"/></clipPath><clipPath id="e53dee4aaf"><path d="M 508.6875 74.925781 L 554.605469 69.207031 L 558.164062 97.8125 L 512.246094 103.527344 Z M 508.6875 74.925781 " clip-rule="nonzero"/></clipPath><clipPath id="477f46809a"><path d="M 512 83 L 557 83 L 557 100.855469 L 512 100.855469 Z M 512 83 " clip-rule="nonzero"/></clipPath><clipPath id="3dfb0425ae"><path d="M 508.6875 74.925781 L 554.605469 69.207031 L 558.164062 97.8125 L 512.246094 103.527344 Z M 508.6875 74.925781 " clip-rule="nonzero"/></clipPath><clipPath id="9d3fa9be08"><path d="M 508.6875 74.925781 L 554.605469 69.207031 L 558.164062 97.8125 L 512.246094 103.527344 Z M 508.6875 74.925781 " clip-rule="nonzero"/></clipPath><clipPath id="878945e396"><path d="M 512.042969 88.488281 L 556.195312 82.992188 L 558.039062 97.777344 L 513.878906 103.269531 Z M 512.042969 88.488281 " clip-rule="nonzero"/></clipPath><clipPath id="a2ac811876"><path d="M 512.042969 88.488281 L 556.140625 83 L 557.984375 97.78125 L 513.878906 103.269531 Z M 512.042969 88.488281 " clip-rule="nonzero"/></clipPath><clipPath id="6bca4b02c8"><path d="M 511 83 L 557 83 L 557 101.867188 L 511 101.867188 Z M 511 83 " clip-rule="nonzero"/></clipPath><clipPath id="7d46334b98"><path d="M 508.6875 74.925781 L 554.605469 69.207031 L 558.164062 97.8125 L 512.246094 103.527344 Z M 508.6875 74.925781 " clip-rule="nonzero"/></clipPath><clipPath id="387df11ad2"><path d="M 508.6875 74.925781 L 554.605469 69.207031 L 558.164062 97.8125 L 512.246094 103.527344 Z M 508.6875 74.925781 " clip-rule="nonzero"/></clipPath><clipPath id="a6381b05c0"><path d="M 511.160156 88.597656 L 556.195312 82.992188 L 558.054688 97.902344 L 513.015625 103.507812 Z M 511.160156 88.597656 " clip-rule="nonzero"/></clipPath><clipPath id="5c77f960e7"><path d="M 511.160156 88.597656 L 556.140625 83 L 557.984375 97.789062 L 513 103.390625 Z M 511.160156 88.597656 " clip-rule="nonzero"/></clipPath><clipPath id="07bbce3cce"><path d="M 523 82.652344 L 544.945312 82.652344 L 544.945312 88 L 523 88 Z M 523 82.652344 " clip-rule="nonzero"/></clipPath><clipPath id="f81ab9cd83"><path d="M 508.6875 74.925781 L 554.605469 69.207031 L 558.164062 97.8125 L 512.246094 103.527344 Z M 508.6875 74.925781 " clip-rule="nonzero"/></clipPath><clipPath id="ffff53da48"><path d="M 508.6875 74.925781 L 554.605469 69.207031 L 558.164062 97.8125 L 512.246094 103.527344 Z M 508.6875 74.925781 " clip-rule="nonzero"/></clipPath><clipPath id="08bea0f2b3"><path d="M 519.660156 81 L 547.980469 81 L 547.980469 88.71875 L 519.660156 88.71875 Z M 519.660156 81 " clip-rule="nonzero"/></clipPath><clipPath id="32ac8165a1"><path d="M 508.6875 74.925781 L 554.605469 69.207031 L 558.164062 97.8125 L 512.246094 103.527344 Z M 508.6875 74.925781 " clip-rule="nonzero"/></clipPath><clipPath id="5675bdff86"><path d="M 508.6875 74.925781 L 554.605469 69.207031 L 558.164062 97.8125 L 512.246094 103.527344 Z M 508.6875 74.925781 " clip-rule="nonzero"/></clipPath><clipPath id="95eea94448"><path d="M 523.707031 75.574219 L 527.753906 75.574219 L 527.753906 79.617188 L 523.707031 79.617188 Z M 523.707031 75.574219 " clip-rule="nonzero"/></clipPath><clipPath id="cebe88d5be"><path d="M 508.6875 74.925781 L 554.605469 69.207031 L 558.164062 97.8125 L 512.246094 103.527344 Z M 508.6875 74.925781 " clip-rule="nonzero"/></clipPath><clipPath id="c850bb90dd"><path d="M 508.6875 74.925781 L 554.605469 69.207031 L 558.164062 97.8125 L 512.246094 103.527344 Z M 508.6875 74.925781 " clip-rule="nonzero"/></clipPath><clipPath id="146988e4ed"><path d="M 522 79.617188 L 524.71875 79.617188 L 524.71875 82 L 522 82 Z M 522 79.617188 " clip-rule="nonzero"/></clipPath><clipPath id="b5d040598b"><path d="M 508.6875 74.925781 L 554.605469 69.207031 L 558.164062 97.8125 L 512.246094 103.527344 Z M 508.6875 74.925781 " clip-rule="nonzero"/></clipPath><clipPath id="e1a38641dd"><path d="M 508.6875 74.925781 L 554.605469 69.207031 L 558.164062 97.8125 L 512.246094 103.527344 Z M 508.6875 74.925781 " clip-rule="nonzero"/></clipPath><clipPath id="a3c06b62ea"><path d="M 627 71.527344 L 673 71.527344 L 673 101.867188 L 627 101.867188 Z M 627 71.527344 " clip-rule="nonzero"/></clipPath><clipPath id="38ea446d41"><path d="M 624.960938 74.691406 L 670.929688 69.40625 L 674.222656 98.042969 L 628.257812 103.324219 Z M 624.960938 74.691406 " clip-rule="nonzero"/></clipPath><clipPath id="970e619b3b"><path d="M 624.960938 74.691406 L 670.929688 69.40625 L 674.222656 98.042969 L 628.257812 103.324219 Z M 624.960938 74.691406 " clip-rule="nonzero"/></clipPath><clipPath id="1f330b87d6"><path d="M 628 83 L 673 83 L 673 100.855469 L 628 100.855469 Z M 628 83 " clip-rule="nonzero"/></clipPath><clipPath id="c58a67e206"><path d="M 624.960938 74.691406 L 670.929688 69.40625 L 674.222656 98.042969 L 628.257812 103.324219 Z M 624.960938 74.691406 " clip-rule="nonzero"/></clipPath><clipPath id="134ec98407"><path d="M 624.960938 74.691406 L 670.929688 69.40625 L 674.222656 98.042969 L 628.257812 103.324219 Z M 624.960938 74.691406 " clip-rule="nonzero"/></clipPath><clipPath id="7a64ad8ac8"><path d="M 628.183594 88.289062 L 672.390625 83.207031 L 674.09375 98.007812 L 629.886719 103.089844 Z M 628.183594 88.289062 " clip-rule="nonzero"/></clipPath><clipPath id="e3522331d8"><path d="M 628.183594 88.289062 L 672.335938 83.214844 L 674.039062 98.011719 L 629.886719 103.089844 Z M 628.183594 88.289062 " clip-rule="nonzero"/></clipPath><clipPath id="ee8602d6ef"><path d="M 627 83 L 673 83 L 673 101.867188 L 627 101.867188 Z M 627 83 " clip-rule="nonzero"/></clipPath><clipPath id="4f317e8910"><path d="M 624.960938 74.691406 L 670.929688 69.40625 L 674.222656 98.042969 L 628.257812 103.324219 Z M 624.960938 74.691406 " clip-rule="nonzero"/></clipPath><clipPath id="c506194678"><path d="M 624.960938 74.691406 L 670.929688 69.40625 L 674.222656 98.042969 L 628.257812 103.324219 Z M 624.960938 74.691406 " clip-rule="nonzero"/></clipPath><clipPath id="162166786c"><path d="M 627.308594 88.386719 L 672.390625 83.207031 L 674.109375 98.128906 L 629.023438 103.3125 Z M 627.308594 88.386719 " clip-rule="nonzero"/></clipPath><clipPath id="2bc8aaa44c"><path d="M 627.308594 88.386719 L 672.335938 83.214844 L 674.039062 98.019531 L 629.011719 103.195312 Z M 627.308594 88.386719 " clip-rule="nonzero"/></clipPath><clipPath id="e3eccaf28b"><path d="M 639 83 L 661 83 L 661 88 L 639 88 Z M 639 83 " clip-rule="nonzero"/></clipPath><clipPath id="46e4f57fcd"><path d="M 624.960938 74.691406 L 670.929688 69.40625 L 674.222656 98.042969 L 628.257812 103.324219 Z M 624.960938 74.691406 " clip-rule="nonzero"/></clipPath><clipPath id="6d5ae678f5"><path d="M 624.960938 74.691406 L 670.929688 69.40625 L 674.222656 98.042969 L 628.257812 103.324219 Z M 624.960938 74.691406 " clip-rule="nonzero"/></clipPath><clipPath id="834e0eeb93"><path d="M 635 81 L 664 81 L 664 88.71875 L 635 88.71875 Z M 635 81 " clip-rule="nonzero"/></clipPath><clipPath id="4013792f7e"><path d="M 624.960938 74.691406 L 670.929688 69.40625 L 674.222656 98.042969 L 628.257812 103.324219 Z M 624.960938 74.691406 " clip-rule="nonzero"/></clipPath><clipPath id="14963a0f6a"><path d="M 624.960938 74.691406 L 670.929688 69.40625 L 674.222656 98.042969 L 628.257812 103.324219 Z M 624.960938 74.691406 " clip-rule="nonzero"/></clipPath><clipPath id="d349b8ca42"><path d="M 640.011719 75 L 644 75 L 644 79.617188 L 640.011719 79.617188 Z M 640.011719 75 " clip-rule="nonzero"/></clipPath><clipPath id="7c16c4b8b7"><path d="M 624.960938 74.691406 L 670.929688 69.40625 L 674.222656 98.042969 L 628.257812 103.324219 Z M 624.960938 74.691406 " clip-rule="nonzero"/></clipPath><clipPath id="1572c2b4eb"><path d="M 624.960938 74.691406 L 670.929688 69.40625 L 674.222656 98.042969 L 628.257812 103.324219 Z M 624.960938 74.691406 " clip-rule="nonzero"/></clipPath><clipPath id="77950182f3"><path d="M 638 79 L 641 79 L 641 81.640625 L 638 81.640625 Z M 638 79 " clip-rule="nonzero"/></clipPath><clipPath id="d288850f34"><path d="M 624.960938 74.691406 L 670.929688 69.40625 L 674.222656 98.042969 L 628.257812 103.324219 Z M 624.960938 74.691406 " clip-rule="nonzero"/></clipPath><clipPath id="43addbc39f"><path d="M 624.960938 74.691406 L 670.929688 69.40625 L 674.222656 98.042969 L 628.257812 103.324219 Z M 624.960938 74.691406 " clip-rule="nonzero"/></clipPath></defs><path fill="#cc0052" d="M 44.246094 52.632812 C 50.945312 52.632812 58.539062 52.914062 67.035156 53.472656 C 75.523438 54.019531 84.746094 60.058594 94.703125 71.582031 C 104.667969 83.097656 109.652344 96.105469 109.652344 110.613281 C 109.652344 126.953125 106.183594 140.933594 99.253906 152.554688 C 92.320312 164.164062 79.351562 169.96875 60.347656 169.96875 L 60.082031 169.96875 C 52.640625 169.96875 46.90625 167.304688 42.871094 161.972656 L 38.730469 162.382812 C 37.171875 167.527344 33.042969 170.09375 26.34375 170.09375 C 17.796875 170.09375 11.097656 166.152344 6.242188 158.257812 L 6.242188 30.464844 C 15.511719 24.871094 23.402344 22.074219 29.914062 22.074219 C 38.453125 22.074219 43.234375 26.523438 44.246094 35.425781 Z M 70.808594 110.613281 C 70.808594 101.523438 68.257812 95.417969 63.160156 92.296875 C 58.074219 89.179688 53.96875 87.621094 50.851562 87.621094 L 41.625 87.621094 L 41.625 114.609375 C 41.625 122.503906 43.710938 127.757812 47.882812 130.382812 C 52.0625 132.996094 55.253906 134.300781 57.457031 134.300781 C 59.929688 134.300781 62.773438 133.503906 65.992188 131.898438 C 69.203125 130.289062 70.808594 123.191406 70.808594 110.613281 Z M 70.808594 110.613281 " fill-opacity="1" fill-rule="nonzero"/><path fill="#cc0052" d="M 161.417969 94.367188 L 186.480469 92.566406 C 186.382812 88.996094 185.554688 85.558594 183.996094 82.246094 C 182.4375 78.941406 179.683594 77.285156 175.734375 77.285156 C 171.328125 77.285156 167.839844 78.988281 165.273438 82.390625 C 162.699219 85.785156 161.417969 89.777344 161.417969 94.367188 Z M 161.148438 115.574219 C 162.160156 124.289062 164.222656 130.113281 167.34375 133.050781 C 170.460938 135.992188 173.257812 137.460938 175.734375 137.460938 C 179.503906 137.460938 182.625 137.167969 185.105469 136.578125 C 187.578125 135.976562 188.953125 132.464844 189.226562 126.035156 C 213.835938 126.035156 226.144531 130.535156 226.144531 139.53125 C 226.144531 143.664062 224.1875 148.160156 220.28125 153.027344 C 216.378906 157.894531 211.21875 161.933594 204.792969 165.148438 C 198.367188 168.363281 188.679688 169.96875 175.734375 169.96875 C 157.832031 169.96875 144.476562 164.710938 135.660156 154.195312 C 126.847656 143.683594 122.449219 129.203125 122.449219 110.753906 C 122.449219 91.660156 127.304688 77.21875 137.03125 67.441406 C 146.765625 57.667969 159.667969 52.777344 175.734375 52.777344 C 198.960938 52.777344 213.078125 59.066406 218.082031 71.644531 C 223.085938 84.222656 225.636719 93.863281 225.730469 100.5625 C 225.449219 106.15625 220.257812 109.234375 210.167969 109.792969 Z M 161.148438 115.574219 " fill-opacity="1" fill-rule="nonzero"/><path fill="#cc0052" d="M 277.078125 94.367188 L 302.140625 92.566406 C 302.046875 88.996094 301.21875 85.558594 299.660156 82.246094 C 298.101562 78.941406 295.347656 77.285156 291.398438 77.285156 C 286.992188 77.285156 283.503906 78.988281 280.933594 82.390625 C 278.363281 85.785156 277.078125 89.777344 277.078125 94.367188 Z M 276.8125 115.574219 C 277.824219 124.289062 279.882812 130.113281 283.003906 133.050781 C 286.121094 135.992188 288.917969 137.460938 291.398438 137.460938 C 295.164062 137.460938 298.289062 137.167969 300.765625 136.578125 C 303.242188 135.976562 304.617188 132.464844 304.890625 126.035156 C 329.5 126.035156 341.804688 130.535156 341.804688 139.53125 C 341.804688 143.664062 339.851562 148.160156 335.945312 153.027344 C 332.042969 157.894531 326.882812 161.933594 320.457031 165.148438 C 314.03125 168.363281 304.34375 169.96875 291.398438 169.96875 C 273.496094 169.96875 260.140625 164.710938 251.320312 154.195312 C 242.511719 143.683594 238.109375 129.203125 238.109375 110.753906 C 238.109375 91.660156 242.96875 77.21875 252.695312 67.441406 C 262.429688 57.667969 275.328125 52.777344 291.398438 52.777344 C 314.625 52.777344 328.742188 59.066406 333.746094 71.644531 C 338.75 84.222656 341.300781 93.863281 341.394531 100.5625 C 341.109375 106.15625 335.917969 109.234375 325.828125 109.792969 Z M 276.8125 115.574219 " fill-opacity="1" fill-rule="nonzero"/><path fill="#cc0052" d="M 403.078125 52.632812 C 409.777344 52.632812 417.371094 52.914062 425.863281 53.472656 C 434.355469 54.019531 443.578125 60.058594 453.535156 71.582031 C 463.5 83.097656 468.484375 96.105469 468.484375 110.613281 C 468.484375 126.953125 465.015625 140.933594 458.085938 152.554688 C 451.152344 164.164062 438.183594 169.96875 419.179688 169.96875 L 418.910156 169.96875 C 411.472656 169.96875 405.738281 167.304688 401.703125 161.972656 L 397.5625 162.382812 C 396.003906 167.527344 391.875 170.09375 385.171875 170.09375 C 376.628906 170.09375 369.929688 166.152344 365.074219 158.257812 L 365.074219 30.464844 C 374.339844 24.871094 382.234375 22.074219 388.746094 22.074219 C 397.285156 22.074219 402.066406 26.523438 403.078125 35.425781 Z M 429.640625 110.613281 C 429.640625 101.523438 427.089844 95.417969 421.992188 92.296875 C 416.90625 89.179688 412.800781 87.621094 409.683594 87.621094 L 400.453125 87.621094 L 400.453125 114.609375 C 400.453125 122.503906 402.539062 127.757812 406.710938 130.382812 C 410.890625 132.996094 414.085938 134.300781 416.289062 134.300781 C 418.761719 134.300781 421.605469 133.503906 424.820312 131.898438 C 428.035156 130.289062 429.640625 123.191406 429.640625 110.613281 Z M 429.640625 110.613281 " fill-opacity="1" fill-rule="nonzero"/><path fill="#cc0052" d="M 520.246094 94.367188 L 545.308594 92.566406 C 545.214844 88.996094 544.386719 85.558594 542.828125 82.246094 C 541.269531 78.941406 538.515625 77.285156 534.566406 77.285156 C 530.160156 77.285156 526.671875 78.988281 524.101562 82.390625 C 521.53125 85.785156 520.246094 89.777344 520.246094 94.367188 Z M 519.980469 115.574219 C 520.992188 124.289062 523.050781 130.113281 526.171875 133.050781 C 529.289062 135.992188 532.085938 137.460938 534.566406 137.460938 C 538.332031 137.460938 541.457031 137.167969 543.933594 136.578125 C 546.410156 135.976562 547.785156 132.464844 548.058594 126.035156 C 572.667969 126.035156 584.972656 130.535156 584.972656 139.53125 C 584.972656 143.664062 583.019531 148.160156 579.113281 153.027344 C 575.210938 157.894531 570.050781 161.933594 563.625 165.148438 C 557.199219 168.363281 547.511719 169.96875 534.566406 169.96875 C 516.664062 169.96875 503.308594 164.710938 494.488281 154.195312 C 485.679688 143.683594 481.277344 129.203125 481.277344 110.753906 C 481.277344 91.660156 486.136719 77.21875 495.863281 67.441406 C 505.597656 57.667969 518.496094 52.777344 534.566406 52.777344 C 557.792969 52.777344 571.910156 59.066406 576.914062 71.644531 C 581.917969 84.222656 584.46875 93.863281 584.5625 100.5625 C 584.277344 106.15625 579.085938 109.234375 568.996094 109.792969 Z M 519.980469 115.574219 " fill-opacity="1" fill-rule="nonzero"/><path fill="#cc0052" d="M 635.910156 94.367188 L 660.972656 92.566406 C 660.878906 88.996094 660.046875 85.558594 658.492188 82.246094 C 656.929688 78.941406 654.175781 77.285156 650.226562 77.285156 C 645.820312 77.285156 642.332031 78.988281 639.765625 82.390625 C 637.195312 85.785156 635.910156 89.777344 635.910156 94.367188 Z M 635.640625 115.574219 C 636.652344 124.289062 638.714844 130.113281 641.835938 133.050781 C 644.953125 135.992188 647.75 137.460938 650.226562 137.460938 C 653.996094 137.460938 657.121094 137.167969 659.597656 136.578125 C 662.070312 135.976562 663.445312 132.464844 663.722656 126.035156 C 688.332031 126.035156 700.636719 130.535156 700.636719 139.53125 C 700.636719 143.664062 698.679688 148.160156 694.773438 153.027344 C 690.875 157.894531 685.710938 161.933594 679.289062 165.148438 C 672.859375 168.363281 663.171875 169.96875 650.226562 169.96875 C 632.328125 169.96875 618.96875 164.710938 610.152344 154.195312 C 601.34375 143.683594 596.941406 129.203125 596.941406 110.753906 C 596.941406 91.660156 601.800781 77.21875 611.527344 67.441406 C 621.261719 57.667969 634.160156 52.777344 650.226562 52.777344 C 673.457031 52.777344 687.570312 59.066406 692.578125 71.644531 C 697.578125 84.222656 700.132812 93.863281 700.226562 100.5625 C 699.941406 106.15625 694.75 109.234375 684.660156 109.792969 Z M 635.640625 115.574219 " fill-opacity="1" fill-rule="nonzero"/><path fill="#cc0052" d="M 783.179688 86.453125 C 781.480469 83.28125 778.523438 81.695312 774.296875 81.695312 C 771.082031 81.695312 768.808594 83.855469 767.472656 88.171875 C 766.144531 92.484375 765.480469 97.394531 765.480469 102.902344 L 765.480469 162.113281 C 754.28125 168.445312 746.019531 171.609375 740.703125 171.609375 C 731.242188 171.609375 724.71875 167.113281 721.140625 158.117188 L 721.140625 61.453125 C 729.40625 55.851562 735.882812 53.046875 740.558594 53.046875 C 745.054688 53.046875 748.824219 53.550781 751.859375 54.5625 L 751.859375 65.859375 C 757.914062 57.507812 765.71875 53.328125 775.261719 53.328125 C 785.914062 53.328125 796.378906 57.691406 806.660156 66.414062 C 804.640625 82.933594 799.175781 91.191406 790.273438 91.191406 C 787.242188 91.191406 784.875 89.613281 783.179688 86.453125 Z M 783.179688 86.453125 " fill-opacity="1" fill-rule="nonzero"/><g clip-path="url(#aa6e2efc2d)"><g clip-path="url(#bd992a230d)"><g clip-path="url(#70e2b04a3a)"><path fill="#ffffff" d="M 170.933594 84.984375 C 172.101562 85.203125 173.261719 85.203125 174.40625 85.046875 C 175.550781 84.914062 176.679688 84.625 177.753906 84.117188 C 178.414062 83.808594 179.035156 83.417969 179.601562 82.949219 C 181.304688 83.953125 183.167969 84.789062 185.097656 85.351562 C 182.363281 85.40625 179.773438 86.542969 177.34375 87.71875 C 177.007812 87.878906 176.667969 88.039062 176.332031 88.203125 C 175.960938 88.371094 175.789062 88.453125 175.460938 88.589844 C 175.261719 88.679688 175.070312 88.765625 174.886719 88.84375 C 174.691406 88.8125 174.484375 88.777344 174.265625 88.742188 C 173.914062 88.6875 173.730469 88.65625 173.328125 88.582031 C 172.960938 88.511719 172.59375 88.441406 172.226562 88.363281 C 169.582031 87.832031 166.789062 87.375 164.132812 88.003906 C 165.855469 86.976562 167.453125 85.707031 168.851562 84.308594 C 169.515625 84.625 170.21875 84.84375 170.933594 84.984375 M 196.933594 84.035156 C 196.578125 83.8125 195.910156 83.6875 195.722656 83.59375 C 195.199219 83.324219 194.71875 82.976562 194.238281 82.632812 C 193.339844 81.984375 192.453125 81.308594 191.574219 80.628906 C 190.78125 80.015625 190.019531 79.378906 189.269531 78.71875 C 188.480469 78.027344 187.785156 77.269531 187.085938 76.488281 C 186.457031 75.785156 185.882812 75.050781 185.164062 74.4375 C 184.417969 73.800781 183.640625 73.1875 182.785156 72.703125 C 181.097656 71.757812 178.847656 71.257812 177.011719 72.050781 C 176.03125 72.46875 175.222656 73.132812 174.449219 73.855469 C 174.0625 74.21875 173.609375 74.582031 173.109375 74.789062 C 172.574219 74.714844 172.042969 74.46875 171.578125 74.21875 C 170.652344 73.707031 169.703125 73.269531 168.652344 73.105469 C 166.671875 72.800781 164.613281 73.839844 163.21875 75.179688 C 162.511719 75.855469 161.910156 76.648438 161.347656 77.449219 C 160.804688 78.222656 160.429688 79.078125 159.996094 79.914062 C 159.511719 80.84375 159.03125 81.75 158.4375 82.617188 C 157.875 83.441406 157.296875 84.253906 156.679688 85.042969 C 155.996094 85.917969 155.308594 86.792969 154.59375 87.644531 L 154.59375 87.648438 C 154.121094 88.214844 153.636719 88.796875 153.042969 89.242188 C 152.777344 89.4375 151.515625 90.210938 152.683594 90.28125 C 153.601562 90.335938 154.390625 90.703125 155.167969 91.199219 C 155.996094 91.730469 156.683594 92.410156 157.324219 93.15625 C 158.027344 93.984375 158.679688 94.855469 159.40625 95.660156 C 160.074219 96.394531 160.808594 97.050781 161.59375 97.660156 C 162.34375 98.238281 163.117188 98.773438 163.9375 99.238281 C 164.832031 99.738281 165.789062 100.101562 166.773438 100.382812 C 168.671875 100.929688 170.710938 101.203125 172.679688 101.039062 C 173.925781 100.933594 175.136719 100.699219 176.34375 100.367188 C 177.589844 100.386719 178.828125 100.3125 180.058594 100.101562 C 182.011719 99.773438 183.917969 99 185.617188 98 C 186.5 97.484375 187.335938 96.894531 188.074219 96.1875 C 188.757812 95.53125 189.375 94.816406 189.957031 94.074219 C 190.566406 93.289062 191.113281 92.46875 191.578125 91.59375 C 192.082031 90.628906 192.492188 89.625 192.972656 88.648438 C 193.402344 87.765625 193.898438 86.9375 194.574219 86.214844 C 194.890625 85.875 195.230469 85.527344 195.617188 85.261719 C 196.007812 84.992188 196.5 84.980469 196.863281 84.71875 C 197.289062 84.417969 197.199219 84.199219 196.933594 84.035156 " fill-opacity="1" fill-rule="nonzero"/></g></g></g><g clip-path="url(#4df3d1dc69)"><g clip-path="url(#decd534c67)"><g clip-path="url(#427d407b16)"><g clip-path="url(#0d27dace71)"><g clip-path="url(#e36ad9ead5)"><path fill="#fcadcd" d="M 180.023438 100.109375 C 180.027344 100.109375 180.027344 100.105469 180.03125 100.105469 C 180.027344 100.105469 180.027344 100.109375 180.023438 100.109375 M 180.058594 100.101562 C 182.011719 99.773438 183.917969 99 185.617188 98 C 186.5 97.484375 187.335938 96.894531 188.074219 96.1875 C 188.757812 95.53125 189.375 94.816406 189.957031 94.074219 C 190.566406 93.289062 191.113281 92.46875 191.578125 91.59375 C 192.082031 90.628906 192.492188 89.625 192.972656 88.648438 C 193.402344 87.765625 193.898438 86.9375 194.574219 86.214844 C 194.890625 85.875 195.230469 85.527344 195.617188 85.261719 C 196.007812 84.992188 196.5 84.980469 196.863281 84.71875 C 197.089844 84.558594 197.171875 84.421875 197.15625 84.304688 C 197.171875 84.421875 197.089844 84.558594 196.863281 84.71875 C 196.5 84.980469 196.007812 84.992188 195.617188 85.261719 C 195.230469 85.527344 194.890625 85.875 194.574219 86.214844 C 193.898438 86.9375 193.402344 87.765625 192.972656 88.648438 C 192.492188 89.625 192.082031 90.628906 191.578125 91.59375 C 191.113281 92.46875 190.566406 93.289062 189.957031 94.074219 C 189.375 94.816406 188.757812 95.53125 188.074219 96.1875 C 187.335938 96.894531 186.5 97.484375 185.617188 98 C 183.917969 99 182.011719 99.773438 180.058594 100.101562 M 196.933594 84.035156 C 196.582031 83.8125 195.914062 83.6875 195.722656 83.59375 C 195.914062 83.6875 196.582031 83.8125 196.933594 84.035156 M 153.042969 89.242188 C 153.046875 89.238281 153.046875 89.238281 153.046875 89.238281 C 153.046875 89.238281 153.046875 89.238281 153.042969 89.242188 M 153.050781 89.238281 C 153.050781 89.238281 153.050781 89.238281 153.050781 89.234375 C 153.050781 89.238281 153.050781 89.238281 153.050781 89.238281 M 153.054688 89.230469 C 153.378906 88.988281 153.667969 88.707031 153.933594 88.414062 C 153.9375 88.414062 153.9375 88.414062 153.9375 88.414062 C 153.667969 88.707031 153.378906 88.988281 153.054688 89.230469 M 195.710938 83.589844 C 195.488281 83.46875 195.269531 83.339844 195.058594 83.203125 C 195.058594 83.203125 195.0625 83.203125 195.0625 83.203125 C 195.269531 83.339844 195.488281 83.46875 195.710938 83.589844 " fill-opacity="1" fill-rule="nonzero"/></g></g></g></g></g><g clip-path="url(#7c9971a961)"><g clip-path="url(#fbc2a30e83)"><g clip-path="url(#b72716ab73)"><g clip-path="url(#c6ab7a688a)"><g clip-path="url(#218572d489)"><path fill="#ffffff" d="M 179.316406 100.210938 C 178.328125 100.339844 177.34375 100.382812 176.34375 100.367188 C 175.382812 100.632812 174.414062 100.832031 173.425781 100.957031 C 173.179688 100.988281 172.929688 101.015625 172.679688 101.039062 C 170.710938 101.203125 168.671875 100.929688 166.773438 100.382812 C 165.789062 100.101562 164.832031 99.738281 163.9375 99.238281 C 163.117188 98.773438 162.34375 98.238281 161.59375 97.660156 C 160.808594 97.050781 160.074219 96.394531 159.40625 95.660156 C 159.355469 95.597656 159.300781 95.539062 159.25 95.480469 C 158.582031 94.726562 157.976562 93.917969 157.324219 93.15625 C 156.714844 92.449219 156.066406 91.800781 155.292969 91.285156 C 155.253906 91.257812 155.210938 91.230469 155.167969 91.199219 C 154.390625 90.703125 153.601562 90.335938 152.683594 90.28125 C 152.347656 90.261719 152.210938 90.183594 152.195312 90.074219 C 152.164062 89.8125 152.851562 89.382812 153.042969 89.242188 C 153.046875 89.238281 153.046875 89.238281 153.046875 89.238281 C 153.046875 89.238281 153.046875 89.238281 153.050781 89.238281 C 153.050781 89.238281 153.050781 89.238281 153.050781 89.234375 C 153.050781 89.234375 153.050781 89.234375 153.054688 89.234375 C 153.054688 89.234375 153.054688 89.230469 153.054688 89.230469 C 153.378906 88.988281 153.667969 88.707031 153.9375 88.414062 C 154.253906 88.53125 154.5625 88.675781 154.867188 88.839844 C 155.6875 89.28125 156.359375 89.851562 156.984375 90.476562 C 157.671875 91.171875 158.304688 91.910156 159.019531 92.589844 C 159.671875 93.207031 160.394531 93.757812 161.164062 94.261719 C 161.898438 94.746094 162.660156 95.195312 163.476562 95.574219 C 164.355469 95.988281 165.308594 96.28125 166.285156 96.507812 C 168.164062 96.9375 170.195312 97.140625 172.164062 96.960938 C 172.414062 96.9375 172.664062 96.910156 172.910156 96.878906 C 173.898438 96.753906 174.871094 96.5625 175.832031 96.320312 C 176.828125 96.316406 177.8125 96.257812 178.800781 96.132812 C 179.050781 96.105469 179.296875 96.070312 179.542969 96.023438 C 181.5 95.710938 183.410156 95.007812 185.128906 94.125 C 186.019531 93.664062 186.863281 93.140625 187.613281 92.519531 C 188.308594 91.953125 188.933594 91.328125 189.527344 90.675781 C 190.144531 89.992188 190.710938 89.28125 191.183594 88.519531 C 191.710938 87.683594 192.136719 86.816406 192.632812 85.972656 C 193.078125 85.203125 193.589844 84.488281 194.273438 83.855469 C 194.519531 83.628906 194.777344 83.402344 195.058594 83.203125 C 195.269531 83.339844 195.488281 83.46875 195.710938 83.589844 C 195.710938 83.589844 195.710938 83.589844 195.714844 83.589844 C 195.71875 83.59375 195.71875 83.59375 195.722656 83.59375 C 195.914062 83.6875 196.582031 83.8125 196.933594 84.035156 C 197.058594 84.109375 197.144531 84.199219 197.15625 84.304688 C 197.171875 84.421875 197.089844 84.558594 196.863281 84.71875 C 196.5 84.980469 196.007812 84.992188 195.617188 85.261719 C 195.230469 85.527344 194.890625 85.875 194.574219 86.214844 C 193.898438 86.9375 193.402344 87.765625 192.972656 88.648438 C 192.492188 89.625 192.082031 90.628906 191.578125 91.59375 C 191.113281 92.46875 190.566406 93.289062 189.957031 94.074219 C 189.375 94.816406 188.757812 95.53125 188.074219 96.1875 C 187.335938 96.894531 186.5 97.484375 185.617188 98 C 183.917969 99 182.011719 99.773438 180.058594 100.101562 C 180.050781 100.105469 180.039062 100.105469 180.03125 100.105469 C 180.027344 100.105469 180.027344 100.109375 180.023438 100.109375 C 179.789062 100.148438 179.550781 100.179688 179.316406 100.210938 " fill-opacity="1" fill-rule="nonzero"/></g></g></g></g></g><g clip-path="url(#22cc497ef2)"><g clip-path="url(#39a7fcff84)"><g clip-path="url(#582d40c7a7)"><path fill="#fcadcd" d="M 185.097656 85.351562 C 185.09375 85.351562 185.09375 85.351562 185.089844 85.351562 C 185.089844 85.351562 185.085938 85.351562 185.082031 85.347656 C 185.085938 85.351562 185.09375 85.351562 185.097656 85.351562 M 164.132812 88.003906 C 164.132812 88 164.136719 87.996094 164.140625 87.996094 C 164.140625 87.996094 164.136719 88 164.136719 88 C 164.132812 88 164.132812 88 164.132812 88.003906 M 183.152344 84.6875 C 183.023438 84.636719 182.890625 84.582031 182.753906 84.523438 C 182.890625 84.582031 183.023438 84.636719 183.152344 84.6875 M 166.597656 86.308594 C 167.390625 85.6875 168.148438 85.011719 168.851562 84.308594 C 169.515625 84.625 170.21875 84.84375 170.933594 84.984375 C 172.046875 85.191406 173.160156 85.203125 174.253906 85.066406 C 174.304688 85.058594 174.355469 85.050781 174.40625 85.046875 C 174.457031 85.039062 174.507812 85.035156 174.5625 85.027344 C 175.65625 84.886719 176.726562 84.605469 177.753906 84.117188 C 178.414062 83.808594 179.035156 83.417969 179.601562 82.949219 C 179.035156 83.417969 178.414062 83.808594 177.753906 84.117188 C 176.726562 84.605469 175.65625 84.886719 174.5625 85.027344 C 174.507812 85.035156 174.457031 85.039062 174.40625 85.046875 C 174.355469 85.050781 174.304688 85.058594 174.253906 85.066406 C 173.160156 85.203125 172.046875 85.191406 170.933594 84.984375 C 170.21875 84.84375 169.515625 84.625 168.851562 84.308594 C 168.625 84.535156 167.664062 85.488281 166.597656 86.308594 " fill-opacity="1" fill-rule="nonzero"/></g></g></g><g clip-path="url(#86c0d092c5)"><g clip-path="url(#fd617e8052)"><g clip-path="url(#71bdee6bd0)"><path fill="#ffffff" d="M 185.097656 85.355469 C 185.09375 85.355469 185.09375 85.355469 185.089844 85.351562 C 185.09375 85.351562 185.09375 85.351562 185.097656 85.351562 C 185.09375 85.351562 185.085938 85.351562 185.082031 85.347656 C 184.84375 85.238281 184.035156 85.027344 183.152344 84.6875 C 183.023438 84.636719 182.890625 84.582031 182.753906 84.523438 C 182.753906 84.523438 182.75 84.519531 182.746094 84.519531 C 181.363281 83.9375 179.917969 83.132812 179.601562 82.949219 C 179.035156 83.417969 178.414062 83.808594 177.753906 84.117188 C 176.726562 84.605469 175.65625 84.886719 174.5625 85.027344 C 174.507812 85.035156 174.457031 85.039062 174.40625 85.046875 C 174.355469 85.050781 174.304688 85.058594 174.253906 85.066406 C 173.160156 85.203125 172.046875 85.191406 170.933594 84.984375 C 170.21875 84.84375 169.515625 84.625 168.851562 84.308594 C 168.148438 85.011719 167.390625 85.6875 166.597656 86.308594 C 166.589844 86.316406 166.585938 86.316406 166.582031 86.320312 C 165.546875 87.113281 164.40625 87.777344 164.140625 87.996094 C 164.136719 87.996094 164.132812 88 164.132812 88.003906 C 164.132812 88 164.132812 88 164.136719 88 C 164.132812 88.003906 164.132812 88.003906 164.132812 88.003906 C 163.324219 87.984375 162.515625 88.015625 161.71875 88.121094 C 161.335938 88.167969 160.957031 88.230469 160.574219 88.3125 C 162.3125 87.40625 167.226562 83.90625 168.648438 82.683594 C 169.304688 82.941406 170.003906 83.117188 170.714844 83.222656 C 171.820312 83.382812 172.925781 83.371094 174.019531 83.234375 C 174.070312 83.230469 174.121094 83.222656 174.175781 83.214844 C 174.226562 83.210938 174.277344 83.203125 174.328125 83.199219 C 175.421875 83.058594 176.496094 82.792969 177.527344 82.359375 C 178.191406 82.082031 178.828125 81.734375 179.398438 81.324219 C 181.078125 82.15625 186.707031 84.320312 188.613281 84.769531 C 188.226562 84.78125 187.84375 84.8125 187.460938 84.859375 C 186.660156 84.964844 185.871094 85.136719 185.097656 85.355469 " fill-opacity="1" fill-rule="nonzero"/></g></g></g><g clip-path="url(#c8004cd6dd)"><g clip-path="url(#b23d6c8e5e)"><g clip-path="url(#3dbfeba05d)"><path fill="#ffffff" d="M 167.882812 75.910156 C 167.167969 75.421875 166.105469 75.515625 165.433594 76.054688 C 164.78125 76.585938 164.492188 77.523438 164.734375 78.332031 C 165.011719 79.238281 165.785156 79.421875 166.511719 78.898438 C 167.089844 78.480469 167.902344 78.753906 168.3125 78.089844 C 168.648438 77.542969 168.636719 76.710938 168.21875 76.210938 C 168.121094 76.09375 168.007812 75.996094 167.882812 75.910156 " fill-opacity="1" fill-rule="nonzero"/></g></g></g><g clip-path="url(#3451d6cf9d)"><g clip-path="url(#6311ac8f9a)"><g clip-path="url(#f3d0b3900b)"><path fill="#ffffff" d="M 165.128906 81.15625 C 165.226562 80.960938 165.261719 80.734375 165.195312 80.5 C 164.917969 79.535156 163.464844 79.394531 163.195312 80.449219 C 162.898438 81.617188 164.578125 82.207031 165.128906 81.15625 " fill-opacity="1" fill-rule="nonzero"/></g></g></g><g clip-path="url(#d973805e4f)"><g clip-path="url(#3d8d0d2f97)"><g clip-path="url(#2dba57add8)"><path fill="#ffffff" d="M 286.820312 84.976562 C 287.984375 85.199219 289.144531 85.199219 290.289062 85.046875 C 291.4375 84.914062 292.5625 84.628906 293.636719 84.125 C 294.296875 83.816406 294.925781 83.425781 295.488281 82.960938 C 297.191406 83.964844 299.054688 84.804688 300.980469 85.371094 C 298.246094 85.417969 295.652344 86.554688 293.222656 87.726562 C 292.886719 87.886719 292.546875 88.046875 292.207031 88.207031 C 291.839844 88.375 291.667969 88.457031 291.339844 88.59375 C 291.136719 88.679688 290.945312 88.765625 290.765625 88.84375 C 290.566406 88.8125 290.359375 88.777344 290.144531 88.742188 C 289.792969 88.6875 289.605469 88.65625 289.207031 88.578125 C 288.839844 88.511719 288.472656 88.4375 288.105469 88.359375 C 285.460938 87.824219 282.667969 87.363281 280.007812 87.984375 C 281.734375 86.960938 283.332031 85.691406 284.738281 84.300781 C 285.398438 84.617188 286.101562 84.835938 286.820312 84.976562 M 312.820312 84.074219 C 312.464844 83.851562 311.796875 83.726562 311.613281 83.632812 C 311.085938 83.363281 310.605469 83.015625 310.128906 82.671875 C 309.230469 82.019531 308.34375 81.34375 307.464844 80.660156 C 306.671875 80.050781 305.914062 79.40625 305.164062 78.746094 C 304.375 78.054688 303.683594 77.296875 302.984375 76.511719 C 302.359375 75.804688 301.78125 75.074219 301.066406 74.457031 C 300.320312 73.820312 299.546875 73.203125 298.6875 72.71875 C 297.011719 71.769531 294.757812 71.265625 292.917969 72.054688 C 291.9375 72.472656 291.125 73.132812 290.351562 73.855469 C 289.964844 74.21875 289.511719 74.582031 289.015625 74.789062 C 288.476562 74.710938 287.945312 74.464844 287.480469 74.210938 C 286.554688 73.699219 285.609375 73.261719 284.558594 73.097656 C 282.578125 72.785156 280.519531 73.824219 279.121094 75.15625 C 278.410156 75.835938 277.808594 76.625 277.246094 77.425781 C 276.699219 78.195312 276.324219 79.050781 275.890625 79.886719 C 275.40625 80.816406 274.917969 81.722656 274.324219 82.585938 C 273.761719 83.410156 273.179688 84.21875 272.5625 85.011719 C 271.878906 85.886719 271.1875 86.757812 270.472656 87.609375 L 270.472656 87.613281 C 270 88.179688 269.515625 88.761719 268.921875 89.203125 C 268.652344 89.398438 267.390625 90.167969 268.558594 90.242188 C 269.472656 90.296875 270.265625 90.667969 271.039062 91.160156 C 271.867188 91.695312 272.554688 92.375 273.191406 93.125 C 273.894531 93.949219 274.542969 94.824219 275.273438 95.632812 C 275.9375 96.367188 276.671875 97.023438 277.453125 97.636719 C 278.199219 98.214844 278.972656 98.753906 279.796875 99.21875 C 280.6875 99.722656 281.644531 100.085938 282.628906 100.371094 C 284.523438 100.917969 286.5625 101.195312 288.53125 101.035156 C 289.78125 100.929688 290.992188 100.699219 292.199219 100.371094 C 293.445312 100.394531 294.683594 100.320312 295.914062 100.113281 C 297.867188 99.789062 299.773438 99.019531 301.476562 98.019531 C 302.359375 97.507812 303.199219 96.917969 303.9375 96.210938 C 304.621094 95.558594 305.242188 94.84375 305.824219 94.101562 C 306.433594 93.320312 306.980469 92.5 307.449219 91.625 C 307.953125 90.664062 308.367188 89.65625 308.851562 88.679688 C 309.28125 87.800781 309.777344 86.972656 310.453125 86.253906 C 310.773438 85.910156 311.113281 85.566406 311.5 85.304688 C 311.894531 85.03125 312.382812 85.023438 312.75 84.761719 C 313.171875 84.460938 313.085938 84.242188 312.820312 84.074219 " fill-opacity="1" fill-rule="nonzero"/></g></g></g><g clip-path="url(#a84dee0ff9)"><g clip-path="url(#21036f29e9)"><g clip-path="url(#530d0b29da)"><g clip-path="url(#8cf7b8e06f)"><g clip-path="url(#aca7fa6bb4)"><path fill="#fcadcd" d="M 295.878906 100.117188 C 295.882812 100.117188 295.882812 100.117188 295.886719 100.117188 C 295.882812 100.117188 295.882812 100.117188 295.878906 100.117188 M 295.914062 100.113281 C 297.867188 99.789062 299.773438 99.019531 301.476562 98.019531 C 302.359375 97.507812 303.199219 96.917969 303.9375 96.210938 C 304.621094 95.558594 305.242188 94.84375 305.824219 94.101562 C 306.433594 93.320312 306.980469 92.5 307.449219 91.625 C 307.953125 90.664062 308.367188 89.65625 308.851562 88.679688 C 309.28125 87.800781 309.777344 86.972656 310.453125 86.253906 C 310.773438 85.910156 311.113281 85.566406 311.5 85.304688 C 311.894531 85.03125 312.382812 85.023438 312.75 84.761719 C 312.972656 84.601562 313.058594 84.464844 313.042969 84.347656 C 313.058594 84.464844 312.972656 84.601562 312.75 84.761719 C 312.382812 85.023438 311.894531 85.03125 311.5 85.304688 C 311.113281 85.566406 310.773438 85.910156 310.453125 86.253906 C 309.777344 86.972656 309.28125 87.800781 308.851562 88.679688 C 308.367188 89.65625 307.953125 90.664062 307.449219 91.625 C 306.980469 92.5 306.433594 93.320312 305.824219 94.101562 C 305.242188 94.84375 304.621094 95.558594 303.9375 96.210938 C 303.199219 96.917969 302.359375 97.507812 301.476562 98.019531 C 299.773438 99.019531 297.867188 99.789062 295.914062 100.113281 M 312.820312 84.074219 C 312.464844 83.851562 311.800781 83.726562 311.613281 83.632812 C 311.800781 83.726562 312.464844 83.851562 312.820312 84.074219 M 268.921875 89.203125 C 268.921875 89.199219 268.921875 89.199219 268.925781 89.199219 C 268.921875 89.199219 268.921875 89.199219 268.921875 89.203125 M 268.925781 89.199219 C 268.925781 89.199219 268.925781 89.199219 268.925781 89.195312 C 268.925781 89.199219 268.925781 89.199219 268.925781 89.199219 M 268.929688 89.195312 C 268.929688 89.195312 268.929688 89.195312 268.933594 89.195312 C 268.929688 89.195312 268.929688 89.195312 268.929688 89.195312 M 268.933594 89.195312 C 269.253906 88.953125 269.542969 88.667969 269.8125 88.371094 C 269.542969 88.667969 269.253906 88.953125 268.933594 89.195312 M 311.597656 83.628906 C 311.375 83.507812 311.15625 83.378906 310.945312 83.242188 C 310.945312 83.242188 310.949219 83.242188 310.949219 83.242188 C 311.15625 83.378906 311.375 83.507812 311.597656 83.628906 " fill-opacity="1" fill-rule="nonzero"/></g></g></g></g></g><g clip-path="url(#a1e8127708)"><g clip-path="url(#6b71521111)"><g clip-path="url(#dbf1917612)"><g clip-path="url(#b463b416a4)"><g clip-path="url(#92c6cb043b)"><path fill="#ffffff" d="M 295.171875 100.21875 C 294.183594 100.34375 293.199219 100.386719 292.199219 100.371094 C 291.238281 100.632812 290.265625 100.832031 289.28125 100.957031 C 289.035156 100.988281 288.785156 101.011719 288.53125 101.035156 C 286.5625 101.195312 284.523438 100.917969 282.628906 100.371094 C 281.644531 100.085938 280.6875 99.722656 279.796875 99.21875 C 278.972656 98.753906 278.199219 98.214844 277.453125 97.636719 C 276.671875 97.023438 275.9375 96.367188 275.273438 95.632812 C 275.21875 95.570312 275.164062 95.511719 275.113281 95.453125 C 274.449219 94.699219 273.84375 93.890625 273.191406 93.125 C 272.585938 92.414062 271.9375 91.769531 271.167969 91.25 C 271.125 91.222656 271.082031 91.195312 271.039062 91.160156 C 270.265625 90.667969 269.472656 90.296875 268.558594 90.242188 C 268.21875 90.21875 268.085938 90.136719 268.070312 90.03125 C 268.039062 89.769531 268.730469 89.339844 268.921875 89.203125 C 268.921875 89.199219 268.921875 89.199219 268.925781 89.199219 C 268.925781 89.199219 268.925781 89.199219 268.925781 89.195312 C 268.929688 89.195312 268.929688 89.195312 268.929688 89.195312 C 268.929688 89.195312 268.929688 89.195312 268.933594 89.195312 C 269.253906 88.953125 269.542969 88.667969 269.8125 88.371094 C 270.128906 88.496094 270.4375 88.636719 270.742188 88.804688 C 271.5625 89.246094 272.234375 89.816406 272.855469 90.445312 C 273.542969 91.140625 274.175781 91.882812 274.890625 92.558594 C 275.539062 93.179688 276.261719 93.730469 277.03125 94.238281 C 277.761719 94.722656 278.523438 95.171875 279.339844 95.554688 C 280.21875 95.96875 281.171875 96.265625 282.144531 96.492188 C 284.027344 96.929688 286.054688 97.132812 288.027344 96.957031 C 288.273438 96.933594 288.523438 96.90625 288.773438 96.875 C 289.761719 96.753906 290.726562 96.5625 291.695312 96.320312 C 292.6875 96.320312 293.675781 96.265625 294.664062 96.144531 C 294.914062 96.113281 295.160156 96.078125 295.40625 96.035156 C 297.363281 95.726562 299.277344 95.03125 300.992188 94.144531 C 301.886719 93.6875 302.730469 93.164062 303.484375 92.546875 C 304.175781 91.976562 304.808594 91.351562 305.402344 90.703125 C 306.019531 90.023438 306.585938 89.3125 307.0625 88.550781 C 307.589844 87.71875 308.019531 86.847656 308.515625 86.003906 C 308.964844 85.238281 309.472656 84.523438 310.160156 83.894531 C 310.40625 83.667969 310.664062 83.4375 310.945312 83.242188 C 311.15625 83.378906 311.375 83.507812 311.597656 83.628906 C 311.597656 83.628906 311.597656 83.628906 311.601562 83.628906 C 311.605469 83.632812 311.605469 83.632812 311.613281 83.632812 C 311.800781 83.726562 312.464844 83.851562 312.820312 84.074219 C 312.941406 84.152344 313.03125 84.242188 313.042969 84.347656 C 313.058594 84.464844 312.972656 84.601562 312.75 84.761719 C 312.382812 85.023438 311.894531 85.03125 311.5 85.304688 C 311.113281 85.566406 310.773438 85.910156 310.453125 86.253906 C 309.777344 86.972656 309.28125 87.800781 308.851562 88.679688 C 308.367188 89.65625 307.953125 90.664062 307.449219 91.625 C 306.980469 92.5 306.433594 93.320312 305.824219 94.101562 C 305.242188 94.84375 304.621094 95.558594 303.9375 96.210938 C 303.199219 96.917969 302.359375 97.507812 301.476562 98.019531 C 299.773438 99.019531 297.867188 99.789062 295.914062 100.113281 C 295.90625 100.113281 295.894531 100.117188 295.886719 100.117188 C 295.882812 100.117188 295.882812 100.117188 295.878906 100.117188 C 295.644531 100.15625 295.40625 100.191406 295.171875 100.21875 " fill-opacity="1" fill-rule="nonzero"/></g></g></g></g></g><g clip-path="url(#34762ace88)"><g clip-path="url(#38468bcb37)"><g clip-path="url(#c4e7eda978)"><path fill="#fcadcd" d="M 300.980469 85.371094 C 300.976562 85.371094 300.976562 85.371094 300.972656 85.371094 C 300.972656 85.371094 300.96875 85.371094 300.964844 85.367188 C 300.96875 85.371094 300.976562 85.371094 300.980469 85.371094 M 280.007812 87.984375 C 280.011719 87.980469 280.015625 87.976562 280.019531 87.976562 C 280.019531 87.976562 280.015625 87.980469 280.011719 87.980469 C 280.011719 87.984375 280.011719 87.984375 280.007812 87.984375 M 299.039062 84.703125 C 298.90625 84.652344 298.773438 84.597656 298.640625 84.539062 C 298.773438 84.597656 298.90625 84.652344 299.039062 84.703125 M 282.476562 86.292969 C 283.273438 85.671875 284.03125 85 284.738281 84.300781 C 285.398438 84.617188 286.101562 84.835938 286.820312 84.976562 C 287.929688 85.1875 289.042969 85.199219 290.136719 85.066406 C 290.1875 85.058594 290.238281 85.050781 290.289062 85.046875 C 290.339844 85.039062 290.394531 85.035156 290.445312 85.027344 C 291.539062 84.886719 292.613281 84.609375 293.636719 84.125 C 294.296875 83.816406 294.925781 83.425781 295.488281 82.960938 C 294.925781 83.425781 294.296875 83.816406 293.636719 84.125 C 292.613281 84.609375 291.539062 84.886719 290.445312 85.027344 C 290.394531 85.035156 290.339844 85.039062 290.289062 85.046875 C 290.238281 85.050781 290.1875 85.058594 290.136719 85.066406 C 289.042969 85.199219 287.929688 85.1875 286.820312 84.976562 C 286.101562 84.835938 285.398438 84.617188 284.738281 84.300781 C 284.511719 84.527344 283.546875 85.476562 282.476562 86.292969 " fill-opacity="1" fill-rule="nonzero"/></g></g></g><g clip-path="url(#fb0519b8f6)"><g clip-path="url(#9764c40e6f)"><g clip-path="url(#35c0577ffb)"><path fill="#ffffff" d="M 300.980469 85.375 C 300.976562 85.375 300.976562 85.375 300.972656 85.371094 C 300.976562 85.371094 300.976562 85.371094 300.980469 85.371094 C 300.976562 85.371094 300.96875 85.371094 300.964844 85.367188 C 300.726562 85.253906 299.917969 85.042969 299.039062 84.703125 C 298.90625 84.652344 298.773438 84.597656 298.640625 84.539062 C 298.636719 84.539062 298.632812 84.535156 298.632812 84.535156 C 297.25 83.949219 295.804688 83.144531 295.488281 82.960938 C 294.925781 83.425781 294.296875 83.816406 293.636719 84.125 C 292.613281 84.609375 291.539062 84.886719 290.445312 85.027344 C 290.394531 85.035156 290.339844 85.039062 290.289062 85.046875 C 290.238281 85.050781 290.1875 85.058594 290.136719 85.066406 C 289.042969 85.199219 287.929688 85.1875 286.820312 84.976562 C 286.101562 84.835938 285.398438 84.617188 284.738281 84.300781 C 284.03125 85 283.273438 85.671875 282.476562 86.292969 C 282.472656 86.296875 282.46875 86.300781 282.464844 86.304688 C 281.425781 87.097656 280.285156 87.757812 280.019531 87.976562 C 280.015625 87.976562 280.011719 87.980469 280.007812 87.984375 C 280.011719 87.984375 280.011719 87.984375 280.011719 87.980469 C 280.011719 87.984375 280.011719 87.984375 280.007812 87.984375 C 279.199219 87.964844 278.394531 87.992188 277.597656 88.097656 C 277.214844 88.144531 276.832031 88.207031 276.453125 88.289062 C 278.191406 87.382812 283.113281 83.894531 284.539062 82.671875 C 285.191406 82.933594 285.890625 83.109375 286.601562 83.21875 C 287.707031 83.378906 288.8125 83.371094 289.90625 83.234375 C 289.957031 83.230469 290.007812 83.222656 290.0625 83.214844 C 290.113281 83.210938 290.164062 83.203125 290.214844 83.199219 C 291.308594 83.058594 292.386719 82.796875 293.417969 82.367188 C 294.082031 82.089844 294.714844 81.742188 295.285156 81.332031 C 296.964844 82.167969 302.589844 84.34375 304.5 84.792969 C 304.113281 84.808594 303.726562 84.839844 303.34375 84.886719 C 302.542969 84.988281 301.753906 85.15625 300.980469 85.375 " fill-opacity="1" fill-rule="nonzero"/></g></g></g><g clip-path="url(#09d7441f7b)"><g clip-path="url(#81db217397)"><g clip-path="url(#0121245f5c)"><path fill="#ffffff" d="M 283.789062 75.898438 C 283.066406 75.410156 282.007812 75.5 281.335938 76.039062 C 280.683594 76.566406 280.390625 77.503906 280.628906 78.3125 C 280.90625 79.222656 281.679688 79.40625 282.410156 78.882812 C 282.988281 78.46875 283.800781 78.742188 284.210938 78.078125 C 284.546875 77.53125 284.535156 76.699219 284.117188 76.199219 C 284.019531 76.082031 283.910156 75.984375 283.789062 75.898438 " fill-opacity="1" fill-rule="nonzero"/></g></g></g><g clip-path="url(#a0e56b8f24)"><g clip-path="url(#bd8006f905)"><g clip-path="url(#edb6b31e9f)"><path fill="#ffffff" d="M 281.019531 81.140625 C 281.117188 80.945312 281.152344 80.714844 281.085938 80.484375 C 280.808594 79.519531 279.359375 79.375 279.085938 80.429688 C 278.785156 81.59375 280.464844 82.1875 281.019531 81.140625 " fill-opacity="1" fill-rule="nonzero"/></g></g></g><g clip-path="url(#a8f03bc8c4)"><g clip-path="url(#6bdf44f7e4)"><g clip-path="url(#e53dee4aaf)"><path fill="#ffffff" d="M 530.085938 84.976562 C 531.253906 85.199219 532.414062 85.199219 533.554688 85.046875 C 534.707031 84.914062 535.832031 84.632812 536.90625 84.125 C 537.566406 83.816406 538.195312 83.429688 538.753906 82.960938 C 540.457031 83.96875 542.324219 84.804688 544.246094 85.375 C 541.515625 85.421875 538.921875 86.554688 536.488281 87.726562 C 536.152344 87.886719 535.816406 88.046875 535.476562 88.207031 C 535.105469 88.375 534.933594 88.457031 534.605469 88.59375 C 534.402344 88.679688 534.210938 88.765625 534.03125 88.84375 C 533.832031 88.8125 533.632812 88.777344 533.410156 88.742188 C 533.058594 88.6875 532.875 88.652344 532.472656 88.578125 C 532.105469 88.507812 531.738281 88.4375 531.371094 88.359375 C 528.726562 87.824219 525.933594 87.359375 523.277344 87.980469 C 525.003906 86.960938 526.601562 85.691406 528.007812 84.300781 C 528.667969 84.617188 529.371094 84.835938 530.085938 84.976562 M 556.085938 84.078125 C 555.734375 83.855469 555.066406 83.730469 554.878906 83.636719 C 554.355469 83.367188 553.875 83.015625 553.394531 82.671875 C 552.496094 82.019531 551.609375 81.34375 550.734375 80.664062 C 549.941406 80.054688 549.183594 79.410156 548.429688 78.746094 C 547.644531 78.054688 546.949219 77.296875 546.253906 76.511719 C 545.628906 75.808594 545.050781 75.074219 544.335938 74.457031 C 543.589844 73.824219 542.816406 73.207031 541.960938 72.71875 C 540.28125 71.769531 538.027344 71.265625 536.1875 72.054688 C 535.207031 72.472656 534.394531 73.132812 533.625 73.855469 C 533.234375 74.21875 532.78125 74.582031 532.28125 74.789062 C 531.746094 74.710938 531.21875 74.464844 530.75 74.210938 C 529.828125 73.699219 528.878906 73.257812 527.828125 73.097656 C 525.847656 72.785156 523.789062 73.820312 522.390625 75.152344 C 521.679688 75.832031 521.082031 76.625 520.515625 77.421875 C 519.96875 78.195312 519.589844 79.050781 519.160156 79.882812 C 518.675781 80.816406 518.1875 81.71875 517.597656 82.585938 C 517.027344 83.40625 516.449219 84.21875 515.832031 85.007812 C 515.148438 85.882812 514.453125 86.757812 513.742188 87.605469 L 513.738281 87.609375 C 513.265625 88.175781 512.785156 88.757812 512.1875 89.199219 C 511.917969 89.394531 510.664062 90.164062 511.824219 90.238281 C 512.746094 90.296875 513.53125 90.664062 514.304688 91.160156 C 515.136719 91.695312 515.820312 92.375 516.457031 93.121094 C 517.160156 93.949219 517.808594 94.824219 518.539062 95.628906 C 519.203125 96.367188 519.9375 97.023438 520.71875 97.632812 C 521.46875 98.214844 522.242188 98.753906 523.0625 99.21875 C 523.957031 99.71875 524.914062 100.082031 525.894531 100.367188 C 527.789062 100.914062 529.828125 101.195312 531.796875 101.035156 C 533.046875 100.929688 534.257812 100.699219 535.464844 100.371094 C 536.710938 100.394531 537.949219 100.320312 539.183594 100.113281 C 541.132812 99.789062 543.042969 99.019531 544.746094 98.023438 C 545.625 97.507812 546.464844 96.917969 547.207031 96.214844 C 547.894531 95.5625 548.507812 94.847656 549.089844 94.105469 C 549.699219 93.324219 550.25 92.503906 550.714844 91.628906 C 551.222656 90.664062 551.636719 89.660156 552.117188 88.683594 C 552.550781 87.804688 553.046875 86.976562 553.722656 86.253906 C 554.039062 85.914062 554.378906 85.570312 554.765625 85.308594 C 555.160156 85.035156 555.648438 85.027344 556.015625 84.765625 C 556.441406 84.464844 556.351562 84.246094 556.085938 84.078125 " fill-opacity="1" fill-rule="nonzero"/></g></g></g><g clip-path="url(#477f46809a)"><g clip-path="url(#3dfb0425ae)"><g clip-path="url(#9d3fa9be08)"><g clip-path="url(#878945e396)"><g clip-path="url(#a2ac811876)"><path fill="#fcadcd" d="M 539.144531 100.121094 C 539.148438 100.121094 539.148438 100.117188 539.152344 100.117188 C 539.148438 100.117188 539.148438 100.121094 539.144531 100.121094 M 539.183594 100.113281 C 541.132812 99.789062 543.042969 99.019531 544.746094 98.023438 C 545.625 97.507812 546.464844 96.917969 547.207031 96.214844 C 547.894531 95.5625 548.507812 94.847656 549.089844 94.105469 C 549.699219 93.324219 550.25 92.503906 550.714844 91.628906 C 551.222656 90.664062 551.636719 89.660156 552.117188 88.683594 C 552.550781 87.804688 553.046875 86.976562 553.722656 86.253906 C 554.039062 85.914062 554.378906 85.570312 554.765625 85.308594 C 555.160156 85.035156 555.648438 85.027344 556.015625 84.765625 C 556.246094 84.605469 556.324219 84.464844 556.308594 84.347656 C 556.324219 84.464844 556.246094 84.605469 556.015625 84.765625 C 555.648438 85.027344 555.160156 85.035156 554.765625 85.308594 C 554.378906 85.570312 554.039062 85.914062 553.722656 86.253906 C 553.046875 86.976562 552.550781 87.804688 552.117188 88.683594 C 551.636719 89.660156 551.222656 90.664062 550.714844 91.628906 C 550.25 92.503906 549.699219 93.324219 549.089844 94.105469 C 548.507812 94.847656 547.894531 95.5625 547.207031 96.214844 C 546.464844 96.917969 545.625 97.507812 544.746094 98.023438 C 543.042969 99.019531 541.132812 99.789062 539.183594 100.113281 M 556.085938 84.078125 C 555.734375 83.855469 555.066406 83.730469 554.882812 83.636719 C 555.066406 83.730469 555.734375 83.855469 556.085938 84.078125 M 512.1875 89.199219 C 512.1875 89.199219 512.191406 89.199219 512.191406 89.195312 C 512.191406 89.199219 512.1875 89.199219 512.1875 89.199219 M 512.191406 89.195312 C 512.191406 89.195312 512.195312 89.195312 512.195312 89.195312 C 512.195312 89.195312 512.191406 89.195312 512.191406 89.195312 M 512.195312 89.191406 C 512.195312 89.191406 512.199219 89.191406 512.199219 89.191406 C 512.199219 89.191406 512.195312 89.191406 512.195312 89.191406 M 512.199219 89.191406 C 512.519531 88.949219 512.808594 88.667969 513.082031 88.371094 C 513.085938 88.371094 513.085938 88.371094 513.085938 88.371094 C 512.8125 88.667969 512.519531 88.949219 512.199219 89.191406 M 554.875 83.632812 C 554.875 83.632812 554.871094 83.632812 554.871094 83.632812 C 554.871094 83.632812 554.875 83.632812 554.875 83.632812 M 554.867188 83.628906 C 554.644531 83.511719 554.425781 83.382812 554.214844 83.246094 C 554.214844 83.242188 554.214844 83.242188 554.214844 83.242188 C 554.425781 83.378906 554.644531 83.511719 554.867188 83.628906 " fill-opacity="1" fill-rule="nonzero"/></g></g></g></g></g><g clip-path="url(#6bca4b02c8)"><g clip-path="url(#7d46334b98)"><g clip-path="url(#387df11ad2)"><g clip-path="url(#a6381b05c0)"><g clip-path="url(#5c77f960e7)"><path fill="#ffffff" d="M 538.4375 100.222656 C 537.453125 100.347656 536.464844 100.390625 535.464844 100.371094 C 534.503906 100.632812 533.53125 100.832031 532.546875 100.957031 C 532.300781 100.988281 532.050781 101.011719 531.796875 101.035156 C 529.828125 101.195312 527.789062 100.914062 525.894531 100.367188 C 524.914062 100.082031 523.957031 99.71875 523.0625 99.21875 C 522.242188 98.753906 521.46875 98.214844 520.71875 97.632812 C 519.9375 97.023438 519.203125 96.367188 518.539062 95.628906 C 518.484375 95.570312 518.433594 95.511719 518.378906 95.449219 C 517.714844 94.695312 517.109375 93.886719 516.457031 93.121094 C 515.851562 92.414062 515.210938 91.765625 514.433594 91.246094 C 514.390625 91.21875 514.347656 91.191406 514.304688 91.160156 C 513.53125 90.664062 512.746094 90.296875 511.824219 90.238281 C 511.488281 90.21875 511.355469 90.132812 511.34375 90.027344 C 511.304688 89.765625 511.996094 89.339844 512.1875 89.199219 C 512.1875 89.199219 512.191406 89.199219 512.191406 89.195312 C 512.191406 89.195312 512.195312 89.195312 512.195312 89.195312 C 512.195312 89.191406 512.195312 89.191406 512.195312 89.191406 C 512.195312 89.191406 512.199219 89.191406 512.199219 89.191406 C 512.519531 88.949219 512.8125 88.667969 513.085938 88.371094 C 513.398438 88.492188 513.707031 88.636719 514.011719 88.800781 C 514.832031 89.242188 515.5 89.816406 516.125 90.441406 C 516.8125 91.140625 517.445312 91.875 518.15625 92.554688 C 518.808594 93.175781 519.527344 93.730469 520.296875 94.234375 C 521.03125 94.722656 521.796875 95.171875 522.605469 95.554688 C 523.484375 95.96875 524.4375 96.261719 525.414062 96.492188 C 527.292969 96.925781 529.320312 97.132812 531.292969 96.957031 C 531.542969 96.933594 531.789062 96.90625 532.039062 96.875 C 533.027344 96.753906 534 96.5625 534.960938 96.324219 C 535.957031 96.320312 536.941406 96.265625 537.929688 96.144531 C 538.179688 96.113281 538.425781 96.078125 538.675781 96.035156 C 540.628906 95.726562 542.542969 95.03125 544.261719 94.144531 C 545.152344 93.6875 546 93.167969 546.75 92.546875 C 547.445312 91.980469 548.074219 91.355469 548.667969 90.707031 C 549.289062 90.023438 549.851562 89.3125 550.332031 88.554688 C 550.855469 87.722656 551.285156 86.851562 551.785156 86.007812 C 552.230469 85.242188 552.746094 84.523438 553.425781 83.898438 C 553.675781 83.671875 553.933594 83.441406 554.214844 83.246094 C 554.425781 83.382812 554.644531 83.511719 554.867188 83.628906 C 554.871094 83.632812 554.871094 83.632812 554.871094 83.632812 C 554.871094 83.632812 554.875 83.632812 554.875 83.632812 C 554.875 83.632812 554.878906 83.636719 554.878906 83.636719 C 554.878906 83.636719 554.878906 83.636719 554.882812 83.636719 C 555.066406 83.730469 555.734375 83.855469 556.085938 84.078125 C 556.210938 84.15625 556.296875 84.246094 556.308594 84.347656 C 556.324219 84.464844 556.246094 84.605469 556.015625 84.765625 C 555.648438 85.027344 555.160156 85.035156 554.765625 85.308594 C 554.378906 85.570312 554.039062 85.914062 553.722656 86.253906 C 553.046875 86.976562 552.550781 87.804688 552.117188 88.683594 C 551.636719 89.660156 551.222656 90.664062 550.714844 91.628906 C 550.25 92.503906 549.699219 93.324219 549.089844 94.105469 C 548.507812 94.847656 547.894531 95.5625 547.207031 96.214844 C 546.464844 96.917969 545.625 97.507812 544.746094 98.023438 C 543.042969 99.019531 541.132812 99.789062 539.183594 100.113281 C 539.175781 100.117188 539.160156 100.117188 539.152344 100.117188 C 539.148438 100.117188 539.148438 100.121094 539.144531 100.121094 C 538.910156 100.15625 538.671875 100.191406 538.4375 100.222656 " fill-opacity="1" fill-rule="nonzero"/></g></g></g></g></g><g clip-path="url(#07bbce3cce)"><g clip-path="url(#f81ab9cd83)"><g clip-path="url(#ffff53da48)"><path fill="#fcadcd" d="M 544.246094 85.375 C 544.246094 85.375 544.242188 85.375 544.242188 85.375 C 544.238281 85.371094 544.238281 85.371094 544.234375 85.371094 C 544.238281 85.371094 544.242188 85.371094 544.246094 85.375 M 523.277344 87.980469 C 523.28125 87.980469 523.285156 87.976562 523.289062 87.976562 C 523.285156 87.976562 523.28125 87.980469 523.28125 87.980469 C 523.277344 87.980469 523.277344 87.980469 523.277344 87.980469 M 542.308594 84.703125 C 542.175781 84.652344 542.042969 84.601562 541.90625 84.539062 C 542.042969 84.597656 542.175781 84.652344 542.308594 84.703125 M 525.746094 86.292969 C 526.542969 85.671875 527.296875 85 528.007812 84.300781 C 528.667969 84.617188 529.371094 84.835938 530.085938 84.976562 C 531.203125 85.1875 532.3125 85.199219 533.40625 85.066406 C 533.457031 85.058594 533.507812 85.050781 533.554688 85.046875 C 533.613281 85.039062 533.660156 85.035156 533.710938 85.027344 C 534.804688 84.890625 535.878906 84.609375 536.90625 84.125 C 537.566406 83.816406 538.195312 83.429688 538.753906 82.960938 C 538.195312 83.429688 537.566406 83.816406 536.90625 84.125 C 535.878906 84.609375 534.804688 84.890625 533.710938 85.027344 C 533.660156 85.035156 533.613281 85.039062 533.554688 85.046875 C 533.507812 85.050781 533.457031 85.058594 533.40625 85.066406 C 532.3125 85.199219 531.203125 85.1875 530.085938 84.976562 C 529.371094 84.835938 528.667969 84.617188 528.007812 84.300781 C 527.777344 84.523438 526.8125 85.476562 525.746094 86.292969 " fill-opacity="1" fill-rule="nonzero"/></g></g></g><g clip-path="url(#08bea0f2b3)"><g clip-path="url(#32ac8165a1)"><g clip-path="url(#5675bdff86)"><path fill="#ffffff" d="M 544.246094 85.375 C 544.246094 85.375 544.246094 85.375 544.242188 85.375 C 544.242188 85.375 544.246094 85.375 544.246094 85.375 C 544.242188 85.371094 544.238281 85.371094 544.234375 85.371094 C 543.996094 85.257812 543.1875 85.046875 542.308594 84.703125 C 542.175781 84.652344 542.042969 84.597656 541.90625 84.539062 C 541.90625 84.539062 541.902344 84.539062 541.898438 84.535156 C 540.515625 83.949219 539.070312 83.144531 538.753906 82.960938 C 538.195312 83.429688 537.566406 83.816406 536.90625 84.125 C 535.878906 84.609375 534.804688 84.890625 533.710938 85.027344 C 533.660156 85.035156 533.613281 85.039062 533.554688 85.046875 C 533.507812 85.050781 533.457031 85.058594 533.40625 85.066406 C 532.3125 85.199219 531.203125 85.1875 530.085938 84.976562 C 529.371094 84.835938 528.667969 84.617188 528.007812 84.300781 C 527.296875 85 526.542969 85.671875 525.746094 86.292969 C 525.742188 86.296875 525.734375 86.300781 525.730469 86.300781 C 524.695312 87.097656 523.558594 87.757812 523.289062 87.976562 C 523.285156 87.976562 523.28125 87.980469 523.277344 87.980469 C 523.277344 87.980469 523.277344 87.980469 523.28125 87.980469 C 523.277344 87.980469 523.277344 87.984375 523.277344 87.984375 C 522.472656 87.964844 521.664062 87.992188 520.863281 88.09375 C 520.480469 88.140625 520.101562 88.203125 519.722656 88.285156 C 521.464844 87.382812 526.378906 83.894531 527.804688 82.671875 C 528.460938 82.933594 529.15625 83.109375 529.871094 83.21875 C 530.976562 83.378906 532.082031 83.371094 533.175781 83.234375 C 533.226562 83.230469 533.28125 83.222656 533.332031 83.214844 C 533.382812 83.210938 533.433594 83.203125 533.484375 83.199219 C 534.578125 83.058594 535.652344 82.796875 536.683594 82.367188 C 537.347656 82.089844 537.984375 81.746094 538.554688 81.335938 C 540.238281 82.167969 545.859375 84.347656 547.765625 84.796875 C 547.378906 84.808594 546.996094 84.839844 546.613281 84.886719 C 545.816406 84.988281 545.023438 85.15625 544.246094 85.375 " fill-opacity="1" fill-rule="nonzero"/></g></g></g><g clip-path="url(#95eea94448)"><g clip-path="url(#cebe88d5be)"><g clip-path="url(#c850bb90dd)"><path fill="#ffffff" d="M 527.054688 75.898438 C 526.339844 75.410156 525.28125 75.496094 524.609375 76.039062 C 523.949219 76.5625 523.65625 77.503906 523.902344 78.3125 C 524.171875 79.21875 524.953125 79.40625 525.679688 78.882812 C 526.253906 78.46875 527.070312 78.742188 527.476562 78.078125 C 527.816406 77.53125 527.804688 76.699219 527.390625 76.199219 C 527.289062 76.082031 527.179688 75.980469 527.054688 75.898438 " fill-opacity="1" fill-rule="nonzero"/></g></g></g><g clip-path="url(#146988e4ed)"><g clip-path="url(#b5d040598b)"><g clip-path="url(#e1a38641dd)"><path fill="#ffffff" d="M 524.289062 81.136719 C 524.386719 80.941406 524.421875 80.714844 524.355469 80.484375 C 524.078125 79.519531 522.628906 79.375 522.355469 80.429688 C 522.054688 81.59375 523.734375 82.1875 524.289062 81.136719 " fill-opacity="1" fill-rule="nonzero"/></g></g></g><g clip-path="url(#a3c06b62ea)"><g clip-path="url(#38ea446d41)"><g clip-path="url(#970e619b3b)"><path fill="#ffffff" d="M 646.265625 84.945312 C 647.429688 85.179688 648.589844 85.191406 649.734375 85.046875 C 650.886719 84.929688 652.015625 84.652344 653.09375 84.15625 C 653.753906 83.855469 654.386719 83.472656 654.953125 83.011719 C 656.648438 84.03125 658.5 84.886719 660.421875 85.472656 C 657.6875 85.496094 655.085938 86.605469 652.644531 87.753906 C 652.304688 87.910156 651.964844 88.070312 651.625 88.222656 C 651.253906 88.390625 651.082031 88.46875 650.75 88.605469 C 650.546875 88.6875 650.355469 88.773438 650.175781 88.851562 C 649.976562 88.816406 649.773438 88.78125 649.554688 88.742188 C 649.203125 88.683594 649.019531 88.648438 648.617188 88.570312 C 648.253906 88.496094 647.886719 88.421875 647.519531 88.339844 C 644.878906 87.78125 642.089844 87.289062 639.425781 87.886719 C 641.164062 86.882812 642.773438 85.628906 644.191406 84.25 C 644.847656 84.566406 645.550781 84.796875 646.265625 84.945312 M 672.273438 84.292969 C 671.921875 84.066406 671.253906 83.933594 671.070312 83.835938 C 670.546875 83.5625 670.070312 83.210938 669.59375 82.859375 C 668.703125 82.203125 667.824219 81.515625 666.953125 80.828125 C 666.164062 80.207031 665.410156 79.554688 664.667969 78.886719 C 663.886719 78.1875 663.199219 77.421875 662.511719 76.632812 C 661.890625 75.925781 661.324219 75.183594 660.613281 74.5625 C 659.871094 73.917969 659.105469 73.292969 658.253906 72.800781 C 656.582031 71.832031 654.332031 71.308594 652.484375 72.082031 C 651.5 72.488281 650.683594 73.144531 649.90625 73.855469 C 649.515625 74.214844 649.058594 74.578125 648.554688 74.777344 C 648.019531 74.695312 647.496094 74.445312 647.027344 74.1875 C 646.113281 73.667969 645.164062 73.21875 644.117188 73.039062 C 642.140625 72.710938 640.074219 73.730469 638.660156 75.050781 C 637.941406 75.726562 637.339844 76.503906 636.765625 77.304688 C 636.210938 78.070312 635.824219 78.917969 635.382812 79.753906 C 634.894531 80.675781 634.398438 81.578125 633.792969 82.433594 C 633.222656 83.257812 632.636719 84.0625 632.011719 84.84375 C 631.316406 85.714844 630.617188 86.578125 629.894531 87.425781 C 629.417969 87.984375 628.925781 88.5625 628.328125 89 C 628.058594 89.195312 626.789062 89.949219 627.957031 90.035156 C 628.871094 90.101562 629.660156 90.476562 630.425781 90.980469 C 631.253906 91.519531 631.929688 92.207031 632.5625 92.964844 C 633.257812 93.796875 633.898438 94.679688 634.617188 95.492188 C 635.277344 96.234375 636.003906 96.898438 636.78125 97.515625 C 637.519531 98.097656 638.289062 98.648438 639.109375 99.117188 C 639.996094 99.632812 640.949219 100.003906 641.929688 100.296875 C 643.816406 100.863281 645.855469 101.164062 647.828125 101.019531 C 649.074219 100.921875 650.292969 100.707031 651.5 100.390625 C 652.75 100.421875 653.980469 100.359375 655.21875 100.167969 C 657.175781 99.859375 659.085938 99.109375 660.800781 98.125 C 661.6875 97.621094 662.53125 97.039062 663.277344 96.339844 C 663.96875 95.695312 664.59375 94.988281 665.183594 94.246094 C 665.796875 93.472656 666.355469 92.660156 666.828125 91.785156 C 667.347656 90.828125 667.769531 89.832031 668.261719 88.859375 C 668.703125 87.980469 669.207031 87.160156 669.886719 86.445312 C 670.210938 86.109375 670.554688 85.765625 670.941406 85.503906 C 671.339844 85.234375 671.828125 85.230469 672.195312 84.976562 C 672.625 84.679688 672.539062 84.457031 672.273438 84.292969 " fill-opacity="1" fill-rule="nonzero"/></g></g></g><g clip-path="url(#1f330b87d6)"><g clip-path="url(#c58a67e206)"><g clip-path="url(#134ec98407)"><g clip-path="url(#7a64ad8ac8)"><g clip-path="url(#e3522331d8)"><path fill="#fea3a2" d="M 655.183594 100.171875 C 655.1875 100.171875 655.1875 100.171875 655.191406 100.171875 C 655.1875 100.171875 655.1875 100.171875 655.183594 100.171875 M 655.21875 100.167969 C 657.175781 99.859375 659.085938 99.109375 660.800781 98.125 C 661.6875 97.621094 662.53125 97.039062 663.277344 96.339844 C 663.96875 95.695312 664.59375 94.988281 665.183594 94.246094 C 665.796875 93.472656 666.355469 92.660156 666.828125 91.785156 C 667.347656 90.828125 667.769531 89.832031 668.261719 88.859375 C 668.703125 87.980469 669.207031 87.160156 669.886719 86.445312 C 670.210938 86.109375 670.554688 85.765625 670.941406 85.503906 C 671.339844 85.234375 671.828125 85.230469 672.195312 84.976562 C 672.421875 84.816406 672.507812 84.679688 672.492188 84.558594 C 672.507812 84.679688 672.421875 84.816406 672.195312 84.976562 C 671.828125 85.230469 671.339844 85.234375 670.941406 85.503906 C 670.554688 85.765625 670.210938 86.109375 669.886719 86.445312 C 669.207031 87.160156 668.703125 87.980469 668.261719 88.859375 C 667.769531 89.832031 667.347656 90.828125 666.828125 91.785156 C 666.355469 92.660156 665.796875 93.472656 665.183594 94.246094 C 664.59375 94.988281 663.96875 95.695312 663.277344 96.339844 C 662.53125 97.039062 661.6875 97.621094 660.800781 98.125 C 659.085938 99.109375 657.175781 99.859375 655.21875 100.167969 M 672.273438 84.292969 C 671.921875 84.066406 671.257812 83.933594 671.070312 83.835938 C 671.257812 83.933594 671.921875 84.066406 672.273438 84.292969 M 628.328125 89 C 628.328125 88.996094 628.332031 88.996094 628.332031 88.996094 C 628.332031 88.996094 628.328125 88.996094 628.328125 89 M 628.332031 88.996094 C 628.332031 88.996094 628.335938 88.996094 628.335938 88.992188 C 628.335938 88.996094 628.332031 88.996094 628.332031 88.996094 M 628.335938 88.992188 C 628.335938 88.992188 628.339844 88.992188 628.339844 88.992188 C 628.339844 88.992188 628.335938 88.992188 628.335938 88.992188 M 628.339844 88.988281 C 628.664062 88.753906 628.957031 88.476562 629.226562 88.179688 C 629.230469 88.179688 629.230469 88.179688 629.230469 88.179688 C 628.957031 88.476562 628.664062 88.753906 628.339844 88.988281 M 671.066406 83.832031 C 671.0625 83.832031 671.0625 83.832031 671.0625 83.828125 C 671.0625 83.832031 671.0625 83.832031 671.066406 83.832031 M 671.058594 83.828125 C 670.835938 83.710938 670.617188 83.578125 670.40625 83.4375 C 670.410156 83.4375 670.410156 83.4375 670.410156 83.433594 C 670.617188 83.578125 670.835938 83.710938 671.058594 83.828125 " fill-opacity="1" fill-rule="nonzero"/></g></g></g></g></g><g clip-path="url(#ee8602d6ef)"><g clip-path="url(#4f317e8910)"><g clip-path="url(#c506194678)"><g clip-path="url(#162166786c)"><g clip-path="url(#2bc8aaa44c)"><path fill="#ffffff" d="M 654.472656 100.269531 C 653.484375 100.382812 652.496094 100.417969 651.5 100.390625 C 650.535156 100.644531 649.566406 100.832031 648.578125 100.949219 C 648.328125 100.976562 648.082031 101 647.828125 101.019531 C 645.855469 101.164062 643.816406 100.863281 641.929688 100.296875 C 640.949219 100.003906 639.996094 99.632812 639.109375 99.117188 C 638.289062 98.648438 637.519531 98.097656 636.78125 97.515625 C 636.003906 96.898438 635.277344 96.234375 634.617188 95.492188 C 634.566406 95.429688 634.515625 95.371094 634.457031 95.308594 C 633.800781 94.546875 633.207031 93.738281 632.5625 92.964844 C 631.964844 92.25 631.324219 91.597656 630.554688 91.066406 C 630.511719 91.039062 630.472656 91.011719 630.425781 90.980469 C 629.660156 90.476562 628.871094 90.101562 627.957031 90.035156 C 627.617188 90.011719 627.484375 89.929688 627.472656 89.824219 C 627.441406 89.5625 628.136719 89.140625 628.328125 89 C 628.328125 88.996094 628.332031 88.996094 628.332031 88.996094 C 628.332031 88.996094 628.335938 88.996094 628.335938 88.992188 C 628.335938 88.992188 628.339844 88.992188 628.339844 88.992188 C 628.339844 88.992188 628.339844 88.988281 628.339844 88.988281 C 628.664062 88.753906 628.957031 88.476562 629.230469 88.179688 C 629.546875 88.300781 629.851562 88.453125 630.15625 88.617188 C 630.96875 89.066406 631.636719 89.644531 632.253906 90.28125 C 632.933594 90.984375 633.558594 91.730469 634.265625 92.414062 C 634.910156 93.042969 635.625 93.597656 636.390625 94.113281 C 637.117188 94.601562 637.875 95.0625 638.6875 95.453125 C 639.5625 95.875 640.511719 96.179688 641.484375 96.417969 C 643.359375 96.871094 645.386719 97.089844 647.355469 96.933594 C 647.609375 96.914062 647.859375 96.890625 648.109375 96.863281 C 649.09375 96.746094 650.066406 96.570312 651.035156 96.335938 C 652.027344 96.34375 653.019531 96.296875 654.003906 96.183594 C 654.25 96.15625 654.5 96.125 654.75 96.085938 C 656.703125 95.792969 658.628906 95.113281 660.355469 94.246094 C 661.246094 93.796875 662.101562 93.285156 662.859375 92.671875 C 663.558594 92.109375 664.195312 91.492188 664.792969 90.851562 C 665.417969 90.175781 665.988281 89.46875 666.472656 88.710938 C 667.007812 87.882812 667.445312 87.019531 667.953125 86.175781 C 668.40625 85.417969 668.921875 84.707031 669.613281 84.082031 C 669.863281 83.855469 670.125 83.636719 670.40625 83.4375 C 670.617188 83.578125 670.835938 83.710938 671.058594 83.828125 C 671.058594 83.828125 671.0625 83.828125 671.0625 83.828125 C 671.0625 83.832031 671.0625 83.832031 671.066406 83.832031 C 671.066406 83.832031 671.066406 83.832031 671.070312 83.835938 C 671.257812 83.933594 671.921875 84.066406 672.273438 84.292969 C 672.394531 84.371094 672.480469 84.457031 672.492188 84.558594 C 672.507812 84.679688 672.421875 84.816406 672.195312 84.976562 C 671.828125 85.230469 671.339844 85.234375 670.941406 85.503906 C 670.554688 85.765625 670.210938 86.109375 669.886719 86.445312 C 669.207031 87.160156 668.703125 87.980469 668.261719 88.859375 C 667.769531 89.832031 667.347656 90.828125 666.828125 91.785156 C 666.355469 92.660156 665.796875 93.472656 665.183594 94.246094 C 664.59375 94.988281 663.96875 95.695312 663.277344 96.339844 C 662.53125 97.039062 661.6875 97.621094 660.800781 98.125 C 659.085938 99.109375 657.175781 99.859375 655.21875 100.167969 C 655.210938 100.167969 655.199219 100.167969 655.191406 100.171875 C 655.1875 100.171875 655.1875 100.171875 655.183594 100.171875 C 654.945312 100.207031 654.710938 100.242188 654.472656 100.269531 " fill-opacity="1" fill-rule="nonzero"/></g></g></g></g></g><g clip-path="url(#e3eccaf28b)"><g clip-path="url(#46e4f57fcd)"><g clip-path="url(#6d5ae678f5)"><path fill="#fea3a2" d="M 660.421875 85.472656 C 660.417969 85.472656 660.417969 85.472656 660.417969 85.472656 C 660.414062 85.472656 660.410156 85.472656 660.410156 85.46875 C 660.414062 85.472656 660.417969 85.472656 660.421875 85.472656 M 639.425781 87.886719 C 639.429688 87.886719 639.433594 87.882812 639.4375 87.882812 C 639.4375 87.882812 639.433594 87.882812 639.433594 87.886719 C 639.429688 87.886719 639.429688 87.886719 639.425781 87.886719 M 658.488281 84.785156 C 658.355469 84.734375 658.226562 84.679688 658.089844 84.621094 C 658.222656 84.679688 658.355469 84.734375 658.488281 84.785156 M 641.910156 86.222656 C 642.714844 85.605469 643.476562 84.945312 644.191406 84.25 C 644.847656 84.566406 645.550781 84.796875 646.265625 84.945312 C 647.375 85.167969 648.488281 85.1875 649.582031 85.066406 C 649.632812 85.058594 649.683594 85.054688 649.734375 85.046875 C 649.785156 85.042969 649.839844 85.035156 649.890625 85.03125 C 650.984375 84.902344 652.0625 84.632812 653.09375 84.15625 C 653.753906 83.855469 654.386719 83.472656 654.953125 83.011719 C 654.386719 83.472656 653.753906 83.855469 653.09375 84.15625 C 652.0625 84.632812 650.984375 84.902344 649.890625 85.03125 C 649.839844 85.035156 649.785156 85.042969 649.734375 85.046875 C 649.683594 85.054688 649.632812 85.058594 649.582031 85.066406 C 648.488281 85.1875 647.375 85.167969 646.265625 84.945312 C 645.550781 84.796875 644.847656 84.566406 644.191406 84.25 C 643.960938 84.472656 642.988281 85.414062 641.910156 86.222656 " fill-opacity="1" fill-rule="nonzero"/></g></g></g><g clip-path="url(#834e0eeb93)"><g clip-path="url(#4013792f7e)"><g clip-path="url(#14963a0f6a)"><path fill="#ffffff" d="M 660.421875 85.476562 C 660.421875 85.476562 660.417969 85.476562 660.417969 85.472656 C 660.417969 85.472656 660.417969 85.472656 660.421875 85.472656 C 660.417969 85.472656 660.414062 85.472656 660.410156 85.46875 C 660.171875 85.359375 659.363281 85.136719 658.488281 84.785156 C 658.355469 84.734375 658.222656 84.679688 658.089844 84.621094 C 658.085938 84.621094 658.085938 84.621094 658.082031 84.617188 C 656.707031 84.015625 655.265625 83.203125 654.953125 83.011719 C 654.386719 83.472656 653.753906 83.855469 653.09375 84.15625 C 652.0625 84.632812 650.984375 84.902344 649.890625 85.03125 C 649.839844 85.035156 649.785156 85.042969 649.734375 85.046875 C 649.683594 85.054688 649.632812 85.058594 649.582031 85.066406 C 648.488281 85.1875 647.375 85.167969 646.265625 84.945312 C 645.550781 84.796875 644.847656 84.566406 644.191406 84.25 C 643.476562 84.945312 642.714844 85.605469 641.910156 86.222656 C 641.90625 86.222656 641.902344 86.226562 641.898438 86.230469 C 640.855469 87.015625 639.707031 87.664062 639.4375 87.882812 C 639.433594 87.882812 639.429688 87.886719 639.425781 87.886719 C 639.429688 87.886719 639.429688 87.886719 639.433594 87.886719 C 639.429688 87.886719 639.429688 87.890625 639.429688 87.890625 C 638.621094 87.863281 637.8125 87.882812 637.015625 87.972656 C 636.632812 88.019531 636.25 88.082031 635.867188 88.160156 C 637.617188 87.269531 642.570312 83.824219 644.007812 82.621094 C 644.65625 82.886719 645.355469 83.070312 646.066406 83.183594 C 647.167969 83.355469 648.273438 83.359375 649.371094 83.234375 C 649.421875 83.226562 649.476562 83.222656 649.527344 83.214844 C 649.578125 83.210938 649.628906 83.203125 649.679688 83.199219 C 650.773438 83.070312 651.851562 82.816406 652.886719 82.398438 C 653.554688 82.125 654.191406 81.785156 654.765625 81.382812 C 656.441406 82.230469 662.042969 84.460938 663.945312 84.933594 C 663.558594 84.941406 663.175781 84.96875 662.792969 85.011719 C 661.988281 85.105469 661.199219 85.269531 660.421875 85.476562 " fill-opacity="1" fill-rule="nonzero"/></g></g></g><g clip-path="url(#d349b8ca42)"><g clip-path="url(#7c16c4b8b7)"><g clip-path="url(#1572c2b4eb)"><path fill="#ffffff" d="M 643.320312 75.835938 C 642.609375 75.34375 641.546875 75.421875 640.871094 75.957031 C 640.207031 76.476562 639.90625 77.414062 640.144531 78.222656 C 640.40625 79.132812 641.183594 79.324219 641.914062 78.808594 C 642.496094 78.402344 643.304688 78.683594 643.722656 78.023438 C 644.0625 77.480469 644.0625 76.648438 643.652344 76.144531 C 643.554688 76.023438 643.441406 75.925781 643.320312 75.835938 " fill-opacity="1" fill-rule="nonzero"/></g></g></g><g clip-path="url(#77950182f3)"><g clip-path="url(#d288850f34)"><g clip-path="url(#43addbc39f)"><path fill="#ffffff" d="M 640.5 81.050781 C 640.605469 80.859375 640.640625 80.632812 640.574219 80.394531 C 640.308594 79.433594 638.859375 79.269531 638.578125 80.320312 C 638.265625 81.488281 639.9375 82.09375 640.5 81.050781 " fill-opacity="1" fill-rule="nonzero"/></g></g></g></svg>